<?xml version="1.0" encoding="UTF-8" standalone="no"?>
<svg
   xmlns:dc="http://purl.org/dc/elements/1.1/"
   xmlns:cc="http://creativecommons.org/ns#"
   xmlns:rdf="http://www.w3.org/1999/02/22-rdf-syntax-ns#"
   xmlns:svg="http://www.w3.org/2000/svg"
   xmlns="http://www.w3.org/2000/svg"
   xmlns:sodipodi="http://sodipodi.sourceforge.net/DTD/sodipodi-0.dtd"
   xmlns:inkscape="http://www.inkscape.org/namespaces/inkscape"
   version="1.0"
   width="2355.2pt"
   height="3230.759pt"
   viewBox="0 0 2355.2 3230.759"
   preserveAspectRatio="xMidYMid meet"
   id="svg106"
   sodipodi:docname="Freebassel-2017-Freebassel5years-1-2017012829.svg"
   inkscape:version="0.92.0 unknown">
  <defs
     id="defs110" />
  <sodipodi:namedview
     pagecolor="#ffffff"
     bordercolor="#666666"
     borderopacity="1"
     objecttolerance="10"
     gridtolerance="10"
     guidetolerance="10"
     inkscape:pageopacity="0"
     inkscape:pageshadow="2"
     inkscape:window-width="1182"
     inkscape:window-height="1062"
     id="namedview108"
     showgrid="false"
     fit-margin-top="0"
     fit-margin-left="0"
     fit-margin-right="0"
     fit-margin-bottom="0"
     inkscape:zoom="0.10036859"
     inkscape:cx="458.35674"
     inkscape:cy="1437.7551"
     inkscape:window-x="0"
     inkscape:window-y="0"
     inkscape:window-maximized="0"
     inkscape:current-layer="svg106" />
  <metadata
     id="metadata2">
Created by potrace 1.12, written by Peter Selinger 2001-2015
<rdf:RDF>
  <cc:Work
     rdf:about="">
    <dc:format>image/svg+xml</dc:format>
    <dc:type
       rdf:resource="http://purl.org/dc/dcmitype/StillImage" />
    <dc:title></dc:title>
  </cc:Work>
</rdf:RDF>
</metadata>
  <g
     id="g4686"
     transform="translate(-684,-149.24079)">
    <path
       d="m 1729.5,151.6 c -4.4,1.3 -13.4,3.3 -20,4.3 -6.6,1.1 -16.5,3.1 -22.1,4.5 -5.5,1.4 -14.7,3.2 -20.5,4.1 -5.7,0.9 -15.1,2.9 -20.9,4.4 -5.8,1.6 -14.5,3.5 -19.4,4.1 -6.7,1 -12,2.6 -21.5,6.6 -16.7,7 -36.8,13 -52.1,15.5 -6.8,1.1 -16.3,3.1 -21,4.5 -4.7,1.3 -13.2,3.2 -18.8,4 -7,1.1 -13,2.7 -18.5,5.1 -4.5,1.9 -12.5,5 -17.7,6.8 -5.2,1.8 -13.1,5 -17.6,7.3 -4.4,2.2 -12.3,5.5 -17.5,7.3 -5.9,2.1 -12.6,5.4 -17.9,8.9 -4.7,3.1 -11.4,7.4 -15,9.5 -9.9,5.9 -18.1,12.6 -33.5,27.5 -7.7,7.4 -15.9,14.8 -18.3,16.5 -3.5,2.5 -4.2,3.5 -4.2,6.6 0,1.9 0.5,4 1,4.5 1.3,1.3 -8.6,9.4 -20,16.1 -10.5,6.3 -31,16.6 -31.7,15.9 -1,-1 9.4,-15.2 17.7,-24 7.2,-7.7 47.4,-39.9 57.8,-46.4 4.5,-2.8 11.2,-7.5 14.9,-10.5 3.7,-2.9 9.7,-7.1 13.3,-9.2 3.6,-2.1 10.5,-6.5 15.3,-9.8 11.7,-7.8 11.1,-8.7 -5.9,-8.7 H 1403 l -8.9,4.5 c -4.9,2.4 -12.5,6.5 -16.8,9.1 -4.3,2.5 -15.2,8.4 -24.3,12.9 -9.9,5 -19.7,10.8 -24.5,14.5 -7.5,5.7 -19.6,13.7 -41,26.9 -4.9,3 -12.1,8 -16,11.1 -3.8,3.1 -9.9,7.4 -13.5,9.5 -10.8,6.4 -22.6,16.5 -40.5,34.5 -14.2,14.4 -18.1,17.7 -24,20.7 -3.8,1.9 -11,5.8 -15.8,8.7 l -8.9,5.1 -8.3,16.5 c -4.5,9.1 -9.2,19.9 -10.3,24 -3.5,12.9 -3.7,12.3 2.7,7.8 6.2,-4.4 13.1,-12.1 16.4,-18.6 1.3,-2.3 4.1,-5.5 6.3,-7 6.6,-4.5 17.3,-13.3 25.1,-20.6 5.4,-5.1 7.3,-7.6 7.3,-9.5 0.1,-8.4 10.7,-20 29.5,-32.1 6.6,-4.3 13.6,-9.2 15.6,-10.9 2.8,-2.4 4.6,-3.1 7.8,-3.1 4,0 8.1,2.5 8.1,5.1 0,0.6 -3.5,4.7 -7.7,9.2 -4.3,4.5 -9.8,10.8 -12.3,13.9 -2.4,3.2 -5.6,6.2 -7.1,6.8 -3.2,1.4 -23.4,21.7 -24.3,24.5 -0.3,1.2 -3.6,3.6 -8,5.8 -9.3,4.8 -15.6,11.2 -15.6,15.9 0,2.9 -1.3,4.7 -9.5,12.8 -5.3,5.2 -10.7,11.4 -12.1,13.7 -1.4,2.4 -2.9,4.3 -3.4,4.3 -0.5,0 -4.2,4.2 -8.3,9.2 -4,5.1 -8.1,9.9 -9.1,10.7 -1,0.8 -3.1,4.2 -4.8,7.5 -8.8,17.7 -21.6,27.9 -27.1,21.8 -1,-1 -1.7,-2.1 -1.7,-2.5 0,-0.3 2.4,-4.4 5.3,-8.9 2.9,-4.6 7.5,-11.8 10.1,-16 2.6,-4.2 6.8,-9.6 9.4,-11.8 6.1,-5.4 6.8,-6.7 4.7,-9 -1.6,-1.8 -2,-1.7 -9.9,4.7 -18.3,15 -20.9,18.1 -30.6,37.3 -9.5,18.9 -13,29.4 -15.5,45.9 -1.4,9.7 -1.8,10.6 -7.3,18.9 -3.2,4.8 -7.6,11.6 -9.7,15.2 -2.1,3.6 -6.2,9.5 -9.1,13.1 -2.9,3.6 -7.4,10 -9.9,14.1 l -4.7,7.6 -2.4,18.8 c -1.3,10.4 -2.6,20 -2.9,21.2 -0.4,1.4 1.8,10.8 5.1,22.4 4.7,16.4 6.1,20.2 8.1,21.5 1.3,0.9 8.7,3.8 16.3,6.4 l 13.9,4.8 9.8,-3.3 c 5.4,-1.9 13.6,-5 18.3,-7 5.7,-2.4 11.8,-4.2 18.5,-5.2 5.5,-0.8 14.7,-2.8 20.5,-4.4 8.7,-2.5 12.5,-3 21,-3 5.8,0 14.1,-0.5 18.5,-1.1 l 8.1,-1.1 8,4 c 4.4,2.2 12.8,5.4 18.7,7.1 9.9,2.9 11.7,3.1 23.4,2.9 10.8,-0.3 12.8,-0.5 13.1,-1.9 0.2,-1.3 -1.9,-2.2 -9.9,-4.4 -5.6,-1.6 -14.3,-4.8 -19.3,-7.3 -5,-2.4 -13.4,-5.7 -18.6,-7.2 -5.3,-1.5 -13.4,-4 -18.2,-5.5 l -8.6,-2.8 -17.8,2.7 -17.8,2.7 -4.5,-4.5 -4.5,-4.6 3.9,-4.1 c 2.2,-2.2 7.3,-6.8 11.4,-10.2 l 7.3,-6 8.2,2.6 c 4.4,1.5 12.5,3.3 17.8,4.1 7.8,1.2 11,2.2 15.5,4.9 3.2,1.9 10.4,5.8 16,8.6 l 10.3,5.1 h 23.2 c 12.8,0 23.8,-0.4 24.4,-0.8 0.6,-0.4 2.3,-3 3.8,-5.9 1.7,-3.5 4.3,-6.5 7.9,-9.2 2.8,-2.1 6.5,-5.3 8.1,-7 l 3,-3.1 h 35.5 c 48.3,-0.1 57.1,-1.4 78,-11.9 5.8,-3 10.9,-4.7 17,-5.7 4.7,-0.9 13.2,-2.8 18.7,-4.5 9.7,-2.8 11.1,-2.9 29.5,-2.9 20.9,0 30.9,-1.2 47.9,-5.4 15.8,-4 25.5,-7.4 35.5,-12.4 5,-2.5 12.2,-5.6 16,-6.9 15.7,-5.3 70.6,-20.3 78.5,-21.3 8.5,-1.2 54.9,-14.2 95,-26.6 11.8,-3.7 27.1,-8.4 34,-10.4 8.3,-2.5 12.6,-4.3 12.8,-5.3 0.3,-1.6 -8.7,-4.9 -28.2,-10.3 l -9.9,-2.7 -25.6,7.2 c -14.1,4 -31.7,9.2 -39.1,11.6 -22.5,7.2 -37,11.1 -37,9.9 0,-1.2 23.2,-11.7 32.5,-14.7 22.8,-7.5 64.4,-18.8 74.5,-20.3 5.8,-0.8 15.1,-2.9 20.6,-4.5 8.3,-2.4 12.1,-2.9 20.4,-2.9 5.7,0 14.1,-0.5 18.9,-1.1 l 8.6,-1.1 18,5.2 c 21.2,6.1 35.9,9 46.5,9 9.8,0 10.8,-1 7,-6.5 -3.5,-5.1 -6,-14.3 -6,-22.2 0,-7.1 3.8,-19 10,-31.3 l 4.3,-8.5 -1.8,-13.5 c -0.9,-7.4 -1.5,-16.7 -1.3,-20.5 l 0.3,-7 44,-0.3 44,-0.3 8.7,3.3 c 4.8,1.7 8.6,3.3 8.5,3.4 -0.3,0.3 -28.7,4.2 -43.2,5.9 -7.1,0.8 -17.8,1.5 -23.7,1.5 h -10.7 l -3.7,6.2 c -2,3.5 -5.9,9.3 -8.6,12.9 -4.7,6.5 -4.9,7 -6.3,18 -0.8,6.2 -1.5,16 -1.5,21.7 v 10.4 l 5.2,6.7 c 2.9,3.6 8,9.5 11.4,13.1 5.9,6.3 6.1,6.7 7.3,14.4 0.7,4.3 2.1,10.3 3.2,13.4 1,3 1.7,5.7 1.5,5.9 -0.2,0.2 -6.8,-2.8 -14.6,-6.7 -11.8,-5.9 -15.7,-7.4 -22.9,-8.5 -4.7,-0.8 -12.6,-2.8 -17.4,-4.4 -10.2,-3.5 -10.6,-3.2 -8.7,5.1 2.1,9 6.1,14.1 15.3,19.7 4.5,2.7 11.5,6.5 15.4,8.5 l 7.3,3.6 h 18.5 18.5 l 8.9,4.4 c 4.9,2.5 13.1,5.7 18.2,7.2 5.2,1.5 13.2,4.6 17.9,6.9 4.7,2.3 12.3,5.5 17,7 4.6,1.6 11.6,4.7 15.5,7 3.8,2.4 10.6,5.4 15.1,6.9 l 8,2.6 3.8,6.5 c 2,3.5 6.4,9.7 9.5,13.7 3.2,4 8,11.6 10.6,16.8 2.6,5.2 6.3,12 8.3,15 l 3.5,5.5 -5.3,16 c -5.6,17 -7.9,21.1 -17.6,31.5 -4.8,5.2 -5.3,6.2 -7.7,16.2 -2.4,9.6 -2.7,12.6 -2.7,28.9 0,17 -0.2,18.7 -2.9,28.3 -1.6,5.5 -3.6,14.6 -4.4,20.1 -1.4,9.7 -1.9,10.9 -14.1,35.2 -6.9,13.9 -14.1,27.7 -16.1,30.7 -4.3,6.8 -10.7,21.1 -15,33.6 -3.3,9.8 -9.9,23.6 -16.6,35 -3.5,6 -4,7.8 -6.8,25.5 -2,12.9 -4.7,25 -8.4,37.7 -5.2,18 -5.6,19 -10.9,25.5 -3,3.7 -7,9.4 -8.8,12.5 -1.9,3.2 -3.7,5.8 -4.1,5.8 -1.2,0 -3.6,-3.5 -4.7,-6.9 -1.1,-3.1 -0.9,-3.9 3.7,-11.5 11.4,-18.7 14.7,-29.3 6.9,-21.9 -4.1,3.8 -35.8,19.8 -35.8,18 0,-1.7 5.6,-15.9 8.7,-22.2 2.2,-4.4 5.1,-11.2 6.3,-15 6.4,-19.5 15.4,-37 25.7,-49.6 l 5.4,-6.8 2.5,-13.8 c 3.2,-17.7 4.6,-22.1 11.6,-36.6 7.8,-16 7.2,-16.9 -4.9,-7.5 -4.4,3.5 -10.9,8.1 -14.5,10.2 -5.8,3.5 -7.2,5 -14.2,15.8 -4.3,6.6 -11.3,18.6 -15.5,26.6 -4.3,8.1 -8.9,16.6 -10.3,18.8 -1.5,2.3 -4,8.8 -5.7,14.5 -1.7,5.7 -3.7,12.4 -4.6,14.9 -0.9,2.5 -4.7,15.1 -8.5,28.1 -6.6,22.7 -11,33.7 -17.8,44.3 -1.5,2.3 -6.8,12.1 -11.8,21.9 l -9.1,17.9 -1.7,-2.7 c -7.2,-10.9 -6.2,-28.3 3.5,-62.5 7.4,-26 10.7,-35.5 15.7,-45.5 2.5,-5 5.9,-13.3 7.7,-18.5 1.8,-5.2 4.9,-13.3 6.9,-17.8 4.1,-9.5 4.2,-10.2 2,-10.2 -2.6,0 -9.9,5.6 -16.4,12.7 -13.1,14.3 -24,34.7 -31.4,58.8 -10.2,33 -12.1,38.9 -16.6,49.5 -8.3,20 -10.6,28.7 -13.4,51 l -2.7,20.5 2.6,19.5 c 3.1,23 6.9,37.8 12.9,49.8 2.4,4.8 5.6,12.5 7.1,17.2 3.6,11.1 33.8,71.4 45,90 4.8,8 11.1,17.5 14,21.1 2.9,3.6 7.2,10.3 9.5,15 2.3,4.6 6.6,11.4 9.5,15 2.9,3.6 7,9.9 9,14 6.8,13.6 13.8,24.3 25.3,38.6 l 11.3,14.2 7.1,0.3 7.1,0.3 4,6.5 c 2.2,3.6 11.5,15.9 20.7,27.5 12.3,15.5 18,23.4 21.4,30.2 2.5,5.1 6.3,12.1 8.4,15.5 2.3,3.7 5,10.4 6.6,16.3 1.6,5.5 4.8,13.8 7.1,18.5 2.3,4.7 5.2,11.6 6.5,15.5 2.5,7.5 10,23.2 15.8,33 2,3.3 11.3,15.7 20.7,27.6 16.2,20.3 17.4,22.1 20,30 1.5,4.6 4.7,12.2 7,16.9 6.9,13.9 14.9,44.1 18,68.5 l 2.6,20 -3.1,10.5 c -1.7,5.8 -4.2,13.8 -5.6,17.9 -2.3,6.9 -2.4,8.6 -2.4,30.3 v 23 l 4.6,6.1 c 2.6,3.4 6.7,8.2 9.2,10.6 5.7,5.5 6.3,4.8 8.1,-8.1 1.5,-11.3 4.9,-25.4 10.1,-41.3 2.1,-6.6 4.8,-15.2 5.9,-19 1.5,-4.8 3.2,-8.2 5.6,-10.8 1.9,-2 3.7,-3.7 3.9,-3.7 0.2,0 0.4,6.6 0.5,14.7 l 0.2,14.8 -4.4,9 c -5,10.3 -8.4,20.3 -16,47 -3.5,12.3 -7,22.2 -9.9,28 -5.6,11.2 -15.2,40.3 -16.8,51 -1.1,7.7 -1,8.3 2,18.3 4.9,16.6 9.4,24.3 19.7,34.2 12.5,12.1 14.9,13.8 33.1,22.9 18.9,9.5 17.4,6.3 13.7,29.1 l -2.6,15.4 3.8,3.9 c 4.8,5 16.2,13.7 17.9,13.7 0.8,0 2.2,-2.9 3.3,-6.8 7.1,-24.2 10.1,-35.8 11.1,-43.7 0.7,-5 2.5,-13.6 4.1,-19.2 1.7,-6.2 4,-19.3 5.9,-34 1.6,-13.1 4.1,-31.9 5.5,-41.8 1.5,-11.2 2.5,-22.8 2.5,-30.7 0,-15.4 3.9,-46.3 8,-63.3 1.6,-6.6 5.1,-19 7.8,-27.5 2.7,-8.5 5.2,-16.9 5.6,-18.5 0.6,-2.9 19.6,-27.7 27.4,-35.8 5.4,-5.7 19.7,-16.8 27.7,-21.7 11.5,-7 19,-13.4 41,-35 13.8,-13.6 27.4,-25.7 39.7,-35.5 17.1,-13.5 19.2,-15.5 23,-21.9 9.3,-15.9 21.1,-27.9 48.8,-50 17.9,-14.3 20.2,-15.8 27.5,-18.2 4.4,-1.5 11.9,-4.6 16.7,-7 l 8.8,-4.4 h 11.2 c 6.2,0 16.7,-0.5 23.3,-1.1 l 12,-1.1 18,5.4 c 13.8,4.2 20.2,6.8 27.5,10.9 5.2,3 11.9,6.5 14.8,7.9 4.5,2.1 6.9,4.5 16.7,16.6 6.4,8.1 13,17.4 15,21.5 2.1,4.1 5.9,11.2 8.5,15.9 4,6.9 5.9,12.2 10.3,28.5 7.8,28.5 10.8,51.3 10.7,83.5 0,31.6 -3.8,62.6 -10,82.5 -2.2,7.1 -7.1,23.6 -10.9,36.5 -4.6,15.7 -8.4,26.6 -11.3,32.5 -2.5,5 -5.8,12.8 -7.3,17.5 -3.6,11.2 -10.7,24.9 -20.7,40.1 -11.6,17.8 -15.2,23.7 -20.4,34.1 -5.4,10.7 -11.4,20.8 -19.4,32.8 -3.1,4.7 -8,12.3 -10.9,17 -2.8,4.7 -8,12.2 -11.4,16.6 -3.4,4.5 -8.2,11.5 -10.7,15.5 -3.3,5.4 -10.6,13.6 -26.5,29.8 -23.6,23.9 -32,31.4 -42.9,37.8 -5.9,3.6 -8.5,6.2 -18.3,18.4 -6.2,7.8 -11.5,15.1 -11.8,16.3 -0.2,1.2 -1.5,10.9 -3,21.6 -1.4,10.7 -3.6,23.3 -5,28 -3.1,10.3 -3.7,14.2 -8,48.1 -3.3,26 -5.4,35.8 -11.5,53.4 -4,11.6 -8.9,33.2 -11,48.5 -1.1,8.5 -3,22.2 -4.1,30.5 -2.4,17.4 -1.8,24.3 3.3,43.2 l 3,11.1 -3,10.9 c -1.7,5.9 -3.5,13.9 -4.2,17.8 -1.3,8.6 -3.8,17.5 -10,37 -7.2,22.7 -18.8,64.2 -19.9,71.5 -1.3,8.3 -6.8,49.9 -8.6,65.5 -0.8,6.6 -1.5,17.7 -1.5,24.6 0,10.9 -0.3,13.5 -2.6,20 -6.2,18 -7.8,39 -4.8,62.9 1.5,11.7 1.9,12.9 6,19.9 2.5,4 6.9,10.3 9.8,14 3,3.6 7,10 9.1,14.1 2,4.1 5.9,11.1 8.5,15.5 4.2,7.1 4.9,9.1 6,17.4 0.7,5.2 2.3,12.5 3.5,16.2 1.3,3.8 2.3,6.9 2.1,6.9 -0.7,0 -15,-5.1 -20.9,-7.5 -4.3,-1.7 -7.2,-2.4 -7.8,-1.8 -0.6,0.6 0.2,6.4 2,15.5 3.1,15.3 6,22.5 15.1,37.3 2.2,3.6 6.1,10.7 8.6,15.8 2.6,5 6.5,12.3 8.7,16.1 4.1,6.9 4.1,7 6.9,28.9 l 2.7,22.1 -2.4,18.5 c -3.2,23.6 -2.7,22.1 -8.4,30.5 -2.6,3.9 -7.1,10.8 -9.9,15.4 -9.2,14.8 -20.4,27.2 -36.2,39.9 -10.1,8.2 -13.1,11.5 -32,35.3 -9,11.3 -18.1,22.5 -20.4,24.9 -6.2,6.5 -47.7,39.7 -56.7,45.2 -4.3,2.6 -10.9,7.2 -14.6,10.2 -3.8,2.9 -9.3,6.9 -12.3,8.7 -3,1.9 -10,6.3 -15.5,9.9 -5.5,3.5 -12.9,8.2 -16.5,10.4 -3.6,2.1 -7.8,5.1 -9.3,6.6 -3.5,3.2 -7,9.8 -6.1,11.3 0.5,0.7 4.3,0.9 12.1,0.5 11.4,-0.5 11.5,-0.5 9.7,1.4 -4.4,4.9 -29.9,18.5 -42.9,22.9 -4.4,1.5 -12.5,4.6 -18,7 -18.4,7.9 -25.9,10 -35.4,10 -4.7,0 -12.3,-0.7 -16.8,-1.4 l -8.2,-1.5 -30.8,8.9 c -16.9,4.8 -32.1,9.3 -33.8,10 -8.5,3.3 -31.3,9.3 -40.5,10.6 -5.8,0.9 -15.7,2.8 -22,4.4 -16.7,4.2 -38.7,7 -61.5,8 -12.7,0.5 -30,2.2 -47.5,4.5 -15.5,2.1 -35.6,4.1 -46,4.5 -10.2,0.5 -28.2,1.4 -40,1.9 -11.8,0.6 -24.6,1.5 -28.5,2 -10.4,1.5 -56.1,1.3 -68,-0.3 -9.2,-1.2 -11.2,-2 -24.5,-8.6 -19.1,-9.6 -30,-16.1 -38.5,-23 -3.8,-3.1 -10.1,-7.5 -14,-9.8 -8.7,-5.1 -57.3,-43.8 -67.5,-53.7 -4.1,-4 -17.6,-15.3 -30,-25.3 -21.9,-17.5 -36.7,-31.5 -46.5,-43.7 -2.6,-3.3 -8.8,-14 -13.7,-23.9 -9,-18 -13.9,-31.4 -15.3,-41.6 -0.4,-3 -2.2,-10.2 -4,-16 -1.8,-5.8 -3.9,-14.6 -4.5,-19.5 l -1.2,-9 -6.7,-7 c -9,-9.4 -14.1,-15.8 -19,-23.9 -3.7,-6 -29.1,-55.9 -29.1,-57.1 0,-0.4 7.1,-2.6 13.1,-4 2.5,-0.6 3.5,0.4 12.9,12 5.6,6.9 12.4,16.3 15.2,20.8 7.1,11.4 16.8,23.1 18.1,21.8 0.7,-0.7 0.1,-6.1 -1.8,-17 l -2.9,-16 -5.4,-6.8 c -3,-3.8 -7.4,-10.7 -9.8,-15.5 l -4.4,-8.8 v -12.4 -12.5 l -7.5,-12.4 c -4.1,-6.9 -7.5,-12.9 -7.5,-13.5 0,-1.1 7.1,-4.2 9.8,-4.2 0.9,0 4.4,1.6 7.7,3.6 5.8,3.6 18.8,9.4 20.8,9.4 1.4,0 32.5,-25.1 37.7,-30.5 2.5,-2.6 7.2,-6.8 10.5,-9.5 5.7,-4.5 6.5,-4.8 15,-6 5,-0.6 14.3,-2.5 20.7,-4.1 10.8,-2.7 13.1,-2.9 30,-2.9 h 18.4 l 3.9,-4.1 c 2.2,-2.3 14.4,-12.5 27,-22.6 12.7,-10.2 23.2,-18.9 23.4,-19.5 0.2,-0.5 -1.9,-3.3 -4.6,-6.2 -7.1,-7.3 -11.3,-13.1 -11.3,-15.4 0,-1 1.1,-7.5 2.5,-14.3 1.4,-6.9 2.1,-12.7 1.7,-13.1 -0.5,-0.5 -3.5,-1.6 -6.8,-2.4 -3.2,-0.9 -7.9,-2.7 -10.6,-4 -2.6,-1.3 -5.4,-2.4 -6.3,-2.4 -0.8,0 -5.5,2 -10.3,4.4 -4.8,2.4 -11.8,5.3 -15.7,6.6 -3.8,1.2 -11.3,4.1 -16.5,6.3 -9.7,4.1 -22.6,8.7 -24.3,8.7 -1.2,0 -0.4,-9.8 0.9,-11 0.5,-0.5 9.6,-2.1 20.2,-3.6 16,-2.3 19.2,-3 19.2,-4.4 0,-1.3 -3.2,-2.1 -19.2,-4.5 l -19.2,-2.9 -4,5 c -2.3,2.7 -7.5,8.4 -11.6,12.7 l -7.5,7.7 -31,8.9 c -17,4.9 -33,9.7 -35.5,10.6 -2.5,0.9 -12.4,3.8 -22,6.6 -9.6,2.8 -18.3,5.2 -19.3,5.5 -1.6,0.5 -1.5,0.1 0.6,-3.3 1.4,-2.2 4.8,-8.6 7.6,-14.2 4,-8 4.8,-10.3 3.7,-10.7 -0.8,-0.3 -2.3,-0.1 -3.5,0.5 -1.1,0.6 -3.5,1.1 -5.3,1.1 -2.6,0 -5.7,1.9 -15.3,9.5 -6.6,5.2 -12.2,9.4 -12.5,9.4 -0.7,0 -8.1,-10.5 -12.4,-17.6 -2.1,-3.5 -4.3,-6.3 -5,-6.3 -0.7,0 -3.1,1.3 -5.2,2.8 -2.1,1.6 -9.1,6.1 -15.5,10 -11.5,7.2 -11.6,7.3 -13.3,12.7 -0.9,3 -2.1,5.7 -2.7,6 -1.2,0.8 -10.5,-4.5 -17.6,-10.2 -3.2,-2.5 -11.9,-10.5 -19.3,-17.8 -7.4,-7.3 -16.9,-15.9 -21,-19.2 -9.3,-7.4 -16.7,-15.4 -29,-31 -9.3,-11.8 -9.7,-12.2 -16.5,-14.8 -3.8,-1.5 -10.3,-4.7 -14.3,-7.1 -4,-2.4 -7.6,-4.4 -8.1,-4.4 -1.2,0 -10.9,12.6 -16.2,21 -4.6,7.5 -13.9,28.2 -15.5,34.4 -0.6,2.6 -0.8,2.7 -1.4,1 -0.4,-1 -1.5,-6.4 -2.4,-11.8 -1.6,-9.5 -2.1,-10.6 -10.3,-24.3 -4.7,-7.8 -9.1,-14.3 -9.8,-14.3 -1.4,0 -10.6,11 -15,18 -1.6,2.5 -6.1,10.6 -10,18 -3.9,7.4 -8.3,15.4 -9.8,17.7 -2.5,4 -3,4.3 -7.2,4.3 -2.4,0 -4.7,-0.5 -5,-1 -0.4,-0.6 0.9,-3.6 2.8,-6.8 1.9,-3.1 5.2,-9.1 7.2,-13.2 4.5,-9.1 8.6,-16.1 17.7,-30.1 6.2,-9.6 7,-11.5 8.3,-19.1 0.8,-4.6 2.8,-12.3 4.4,-17.1 l 3,-8.7 -2.6,-1.8 c -1.4,-0.9 -4.2,-3.2 -6.3,-4.9 -2,-1.8 -4.2,-3.3 -4.7,-3.3 -1.2,0 -9.1,18.4 -12.4,28.9 -2.3,7.1 -2.7,7.7 -10.9,14.6 -4.7,4 -10.2,9.1 -12.3,11.2 l -3.8,4 -9.2,-1.4 c -18.2,-2.6 -31.9,-8.7 -46.4,-20.5 -7.1,-5.8 -8.7,-6.6 -9.7,-5 -0.3,0.5 0.7,9.2 2.3,19.3 3,19.8 5.2,26.2 11.4,32.6 1.7,1.8 2.9,3.4 2.6,3.6 -0.2,0.2 -4.9,1.1 -10.4,2.1 -5.6,0.9 -11,1.9 -12.1,2.2 -1.9,0.5 -2.2,-0.5 -4.7,-21.2 -1.5,-12 -2.9,-21.9 -3,-22 -0.4,-0.3 -13.2,-5.5 -14.9,-6.1 -3.5,-1.1 -14.4,25.3 -19.4,46.9 -1,4.3 -2.1,7.8 -2.6,7.8 -1.2,0 -19,-7.8 -20,-8.8 -0.5,-0.5 -0.2,-2.4 0.8,-4.6 1.3,-2.7 2.2,-3.5 3.3,-3 0.9,0.4 3.5,0.9 5.8,1.2 4.1,0.4 4.3,0.3 7.6,-5 3.2,-4.9 14.7,-27.1 14.7,-28.3 0,-1.1 -4.5,-0.4 -12.9,2 -4.8,1.4 -12.3,3.2 -16.7,3.9 l -7.9,1.4 -4.5,-2.8 c -2.5,-1.6 -6,-4.5 -7.9,-6.4 l -3.4,-3.5 2.7,-21.5 c 4.1,-32.3 9.9,-47.8 23,-61.6 3.9,-4.1 8.9,-9.8 11.1,-12.7 l 4,-5.2 16.8,-5.7 16.9,-5.6 3.9,-6.2 c 2.2,-3.3 6.1,-10.4 8.8,-15.6 4.2,-8.2 5.1,-11 6.5,-20.4 0.9,-6 2.8,-15.4 4.2,-21 2.9,-11.4 2.9,-10.6 -1.1,-40.6 -1.4,-10.7 -3.7,-27.6 -5,-37.5 l -2.4,-18 -4.3,-3.5 c -5.2,-4.1 -12.8,-11.8 -18.3,-18.2 l -4,-4.7 -20,-2.5 c -12.4,-1.6 -24.9,-2.6 -33,-2.6 -7.1,-0.1 -17.7,-0.7 -23.5,-1.5 -5.8,-0.8 -10.8,-1.5 -11.2,-1.5 -1,0 -2.8,-6 -2.8,-9.5 v -3.2 l 12.3,-0.6 c 15.8,-0.9 26.2,-2.7 26.2,-4.7 0,-1.8 -36.3,-12.4 -48.4,-14 -7.4,-1 -26.7,-5.6 -28.1,-6.7 -0.2,-0.2 2.9,-7.1 7,-15.3 l 7.4,-15 h 6.6 c 3.6,0 9.3,-0.7 12.8,-1.5 3.4,-0.8 14.9,-2.6 25.5,-4 29.7,-3.9 38.4,-5.4 49.8,-8.6 l 10.5,-2.9 16,2.5 c 18.6,3 41.9,3.4 60.6,1 49.4,-6.1 67.3,-8.9 78.8,-12 6.9,-1.8 16.3,-3.8 21,-4.5 4.7,-0.6 13.5,-2.4 19.5,-3.9 l 11.1,-2.8 6.9,2.4 c 3.9,1.4 11.4,3.3 16.7,4.2 l 9.7,1.8 11.8,9.4 c 6.5,5.2 15.2,12.5 19.3,16.4 4.2,3.8 9.3,8.1 11.4,9.5 2.8,1.9 4.9,4.7 8.2,11.2 2.4,4.9 6.2,11.7 8.3,15.2 3.9,6.4 4,6.5 4.3,18 0.2,6.3 0,11.2 -0.5,10.7 -0.4,-0.4 -2.2,-5.2 -4,-10.7 l -3.4,-9.9 -5.4,-0.5 c -3,-0.3 -6.5,-1.2 -7.8,-1.9 -1.3,-0.7 -2.7,-0.9 -3.2,-0.4 -0.5,0.5 -2,9.6 -3.4,20.3 -1.4,10.7 -4,24.4 -5.6,30.5 -4,14.5 -7.9,41.5 -8.6,59.5 -0.5,14 -0.7,14.7 -4,21.5 -2,3.8 -5.7,10.6 -8.3,15 l -4.8,8 -2.7,22.5 c -2.7,22.1 -2.8,22.7 -7,31 -6.7,13.3 -10,25.8 -13,49 -2,15.6 -2.6,23.8 -2.3,34 l 0.3,13.5 h 8 c 4.4,0 10.1,-0.6 12.8,-1.4 l 4.7,-1.4 v -8.8 c 0,-11.3 2.7,-28.2 5.2,-33.4 1.1,-2.2 4.2,-6.9 6.8,-10.5 4.4,-5.9 4.9,-7.3 6,-15 0.6,-4.7 2.3,-12.8 3.7,-18 l 2.5,-9.6 3.4,0.4 c 3.1,0.4 3.8,1.1 6.5,6.5 1.7,3.3 4.1,7.7 5.4,9.6 1.3,2.1 2.7,6.7 3.4,11.1 1.3,8.9 6.7,23 8.7,23 1.1,0 1.4,-2.2 1.4,-10.7 0,-5.9 0.7,-16.2 1.6,-22.9 1.5,-12.1 1.5,-12.6 -1.1,-32.1 -6.3,-48.1 -8.6,-62.3 -11.4,-70.6 -1.6,-4.6 -3.2,-10.4 -3.5,-12.8 -0.4,-2.4 -0.9,-5.5 -1.2,-6.9 -0.4,-2.4 -0.1,-2.6 5.2,-3.8 3.1,-0.8 5.7,-1.2 5.8,-1 0.1,0.2 1.3,2.1 2.6,4.3 4.5,7.8 13.3,19.5 14.6,19.5 1.7,0 1.8,-0.7 4.9,-20.9 1.6,-10.6 2.5,-20.7 2.5,-29 0.1,-6.9 0.7,-17.7 1.4,-23.8 1.2,-10.2 1.8,-12 5.4,-18 10.6,-18 12.7,-23.6 15.6,-41.8 l 2.8,-17 -3,-10.5 c -1.7,-5.8 -3.6,-14.6 -4.2,-19.6 -1.2,-9 -1.4,-9.3 -7.1,-16.5 -3.3,-4.1 -7.7,-10.3 -9.8,-13.9 -3.9,-6.5 -3.9,-6.7 -6.7,-29 l -2.8,-22.5 -7.1,-7.5 c -4,-4.1 -13.6,-15.6 -21.5,-25.5 -7.9,-9.9 -18,-21.8 -22.4,-26.5 -4.5,-4.7 -9.9,-10.9 -12.1,-13.8 -3.3,-4.4 -5.6,-6.2 -12.7,-9.8 -4.9,-2.4 -11.7,-6.2 -15.3,-8.4 -10.8,-6.6 -41.6,-21.6 -48,-23.4 -28,-7.9 -28.2,-7.9 -43.5,-20.2 -7.9,-6.3 -15.1,-11.4 -16.1,-11.4 -1,0 -7.9,1.1 -15.5,2.5 -7.5,1.4 -14,2.2 -14.4,1.8 -6.4,-7.8 -9.5,-12.1 -13.5,-18.6 -3.4,-5.7 -6.6,-9.3 -11.7,-13.4 -3.8,-3.1 -9.6,-8.9 -12.9,-12.9 l -5.9,-7.2 -8.7,-1.2 c -4.9,-0.6 -14.4,-2.7 -21.3,-4.5 -6.9,-1.8 -16.9,-3.9 -22.3,-4.5 -5.3,-0.6 -14.3,-2.5 -19.9,-4 l -10.1,-2.9 -6.6,5.2 c -3.6,2.8 -10.2,8.6 -14.7,12.8 -6.1,5.6 -10.5,8.7 -17.5,12.2 -13.3,6.5 -13.4,6.5 -19.9,1.4 -3,-2.4 -6.8,-6.3 -8.4,-8.6 -2.9,-4.1 -2.9,-4.3 -1.2,-6.9 0.9,-1.5 3.1,-5.6 4.9,-9.1 l 3.2,-6.3 16.5,-8.3 c 15.2,-7.6 17.3,-8.4 26,-9.5 5.2,-0.7 14,-2.6 19.4,-4.1 l 9.9,-2.8 10.6,3.4 c 5.8,1.9 22.7,6.9 37.6,11.1 l 27,7.7 21,-2.7 c 22.8,-3 27.8,-4.3 46,-11.8 14.3,-6 23.6,-11.2 33,-18.9 3.9,-3.1 10.7,-7.9 15.1,-10.6 13,-8 20.1,-14.2 24.1,-20.8 2.1,-3.3 6.8,-10.7 10.5,-16.3 l 6.8,-10.4 v -20.9 -20.9 l -8.7,-17.4 -8.6,-17.3 -7.6,-3.8 c -4.2,-2 -11.3,-5.9 -15.9,-8.7 -8.6,-5.2 -11.6,-5.6 -10.8,-1.6 0.3,1.3 1.7,7.2 3.1,13.1 2,8.8 2.5,13.5 2.6,25 0,7.8 0.6,18.2 1.3,23.2 l 1.3,9 -4.4,9 c -8,16.1 -11.4,20.8 -23.7,33.3 -10.5,10.8 -13.2,12.9 -20.8,16.8 -4.9,2.4 -11.7,6.2 -15.3,8.4 l -6.5,4 h -11.3 c -20.2,-0.1 -39.2,-4.2 -54.7,-12 -6,-3 -10.4,-4.5 -15.4,-5.1 -3.9,-0.5 -13.6,-1.9 -21.6,-3 l -14.5,-2 -12,2.9 c -6.6,1.6 -16.3,3.5 -21.5,4.2 -9.4,1.3 -9.6,1.4 -16.5,7 -3.8,3.1 -10.3,7.6 -14.3,9.9 -5.7,3.4 -8.7,6.2 -14.1,13 -3.8,4.7 -8.7,10.3 -10.9,12.4 -3.9,3.8 -3.9,3.8 -20.3,6.2 -9,1.4 -17.9,2.5 -19.7,2.5 -3.4,0 -10.2,-3.1 -23.8,-10.8 l -8.1,-4.6 -8.2,-16.5 -8.2,-16.6 2,-11.9 c 1.2,-6.5 2.4,-14.9 2.7,-18.6 l 0.7,-6.7 -3.9,-2.4 c -2.2,-1.3 -6.3,-4.6 -9.2,-7.3 -3.4,-3.2 -5.6,-4.6 -6.2,-4 -0.6,0.6 -3.5,9.6 -6.5,20.2 -5.3,18.4 -5.5,19.6 -5.5,30.9 0.1,23.7 4.6,37.8 16.9,53.2 2.8,3.5 5.3,7.3 5.6,8.5 0.2,1.2 0.9,5 1.5,8.6 0.6,3.6 2.3,10 3.8,14.3 l 2.6,7.7 -3.8,7.8 c -2.1,4.2 -5.7,11.1 -8.2,15.2 -5.2,9.1 -12.1,24.6 -15.9,36 l -2.8,8.3 2.8,21.1 2.8,21.1 8.8,17.7 c 10,20 8.7,18.7 30.4,29.6 7.1,3.6 11.4,6.5 15,10.2 2.8,2.9 11.5,10.5 19.5,16.9 16.9,13.5 28.2,19.5 50,26.2 l 13.5,4.2 26.5,0.7 c 23.4,0.6 27.3,0.9 33,2.9 12,4 22.8,5.1 49.5,5.1 16.9,0 28.1,0.5 34.5,1.5 5.2,0.8 14,1.5 19.5,1.5 h 10 l -2.5,2.1 c -1.4,1.1 -5.5,3.5 -9.2,5.4 l -6.8,3.5 h -22.5 c -22.4,0 -22.6,0 -27.7,2.6 -2.9,1.5 -6.9,3.8 -9.1,5.2 l -3.8,2.6 -5.5,-2.8 c -3.1,-1.4 -8,-4.5 -11,-6.7 l -5.4,-4.1 -12.7,3 c -23.2,5.6 -27.3,5.9 -47.3,2.8 -9.6,-1.5 -17.9,-3 -18.5,-3.4 -4.8,-2.8 -14,-11.4 -18.5,-17.2 -3,-3.8 -6.1,-7 -7,-7 -0.9,0 -2.4,2.4 -3.9,6.2 -1.3,3.5 -3.9,9.2 -5.7,12.9 -1.8,3.6 -4.6,11.2 -6.3,17 -1.7,5.7 -4.2,13.8 -5.6,17.8 -3,8.9 -8.5,50 -8.5,63.8 0,4.9 0.7,13.4 1.5,18.9 1,6.5 1.5,17.6 1.5,32.4 0,25 0.1,24.2 -8.9,52.5 -13.7,42.5 -18.1,58.6 -20.6,75.6 -1.3,8.5 -8.6,36.4 -10,37.7 -0.2,0.2 -0.8,-2.3 -1.5,-5.5 -2.3,-11.4 -3.5,-15.7 -4.7,-16 -0.7,-0.3 -3.2,3.5 -5.9,8.9 -2.5,5.1 -6.5,12.4 -8.7,16.2 -6,10 -6.7,16.4 -6.7,61.4 0,27.7 0.4,39.7 1.5,47 1.7,11.1 6.5,28.4 8.1,28.9 0.6,0.2 2.6,-1 4.5,-2.7 1.9,-1.6 3.6,-3 4,-3 0.3,0 1.5,2.1 2.8,4.7 1.2,2.7 4.7,9.1 7.6,14.3 2.9,5.2 5.8,11.5 6.5,14 0.6,2.5 2.3,7.1 3.7,10.3 l 2.7,5.8 -2.7,5.4 -2.7,5.5 4.6,9.3 c 10.7,21.4 10.7,21.3 34.4,40.2 25.3,20.2 37.5,27.8 74.7,46.4 L 919,2905 h 9.1 c 5.1,0 14.9,-0.7 22,-1.6 11.8,-1.5 13.6,-1.5 24.1,0 8.5,1.2 18.9,1.6 42,1.6 h 30.6 l 18,-8.9 c 12.6,-6.3 22.5,-10.4 32.9,-13.6 8.1,-2.6 19.5,-6.2 25.3,-8 27,-8.6 30.1,-9.3 50.5,-10 23.4,-0.9 30,-0.9 53.8,0 22.6,0.9 36.5,-0.6 55,-6.1 1.7,-0.5 1.7,-0.4 0.4,2.3 -0.8,1.5 -2.3,5.5 -3.2,8.8 -1,3.3 -1.8,6.1 -1.9,6.2 -0.1,0.1 -7.8,1.4 -17.1,2.8 -15.8,2.5 -17.7,2.6 -27.5,1.5 -5.8,-0.6 -15.4,-2.5 -21.4,-4.2 l -10.9,-3 -20.1,2.7 c -11,1.4 -25.3,3.9 -31.6,5.5 -6.3,1.6 -16.2,3.6 -22,4.5 -9.9,1.4 -13.2,2.6 -11.7,4.2 3.1,3 62.1,4.6 81.7,2.2 l 9.5,-1.2 6.5,4 c 9.6,5.9 22.8,9.8 43.3,12.9 l 17.8,2.7 12.7,-12.6 c 9.5,-9.4 13.8,-13 17,-14.1 2.4,-0.9 5.6,-2.5 7.2,-3.6 1.5,-1.1 3,-2 3.3,-2 0.3,0 1.5,3 2.8,6.7 1.2,3.8 4.1,10.7 6.5,15.5 5.3,10.5 14.7,42.7 16.9,57.8 2.6,17.5 6.2,27.4 20,55 14.2,28.5 26.1,49.2 34.2,59.2 2.9,3.7 5.7,7.7 6.3,9 0.5,1.3 4.1,13.5 8,27.3 10.5,37.1 13.4,45.3 23.1,64.5 7.5,15 9.6,18.3 14.6,23.1 12.1,11.7 23.5,19.6 40.8,28.2 8.7,4.3 9.3,4.8 18,15.8 13.5,17.2 23.1,26.6 44.8,44.1 13.9,11.2 19.6,16.3 18.8,17.1 -1.3,1.3 -9.2,-3.4 -18.8,-11.1 -3.8,-3 -10.6,-7.3 -15.3,-9.7 -4.7,-2.4 -11.9,-7 -16,-10.2 -4.1,-3.3 -10.4,-7.7 -14,-9.8 -3.6,-2.1 -9.7,-6.5 -13.7,-9.7 -7,-5.7 -7.3,-5.8 -13.3,-5.8 -8.1,0 -8.7,1.6 -2.9,7.7 6.2,6.3 35.2,29.2 42.8,33.8 3.5,2.1 9.6,6.4 13.6,9.6 4.1,3.2 11.1,7.7 15.7,10 4.6,2.3 11.2,6.5 14.8,9.4 3.6,2.8 10.2,7.5 14.7,10.3 4.5,2.8 11.3,7.5 15,10.5 3.7,3 11,7.5 16.1,10.1 5.1,2.6 11,5.7 13.1,7 7.8,5 26,13.4 35.1,16.4 31.1,10.1 32,10.2 87.9,10.2 h 46.3 l 28.2,-3.5 c 43.9,-5.5 55.5,-7.3 64.6,-10 4.7,-1.4 13.2,-3.3 19,-4.1 5.8,-0.9 15,-2.8 20.5,-4.4 5.5,-1.6 13.8,-3.4 18.5,-4 4.7,-0.7 13.7,-2.5 20,-4 6.3,-1.6 15.8,-3.6 21,-4.5 9.1,-1.6 25.7,-5.9 26.8,-7 0.3,-0.3 -0.8,-0.3 -2.4,0 -8.8,1.5 -22.4,2.5 -33.4,2.5 -6.9,0 -17.2,0.7 -23,1.5 -5.8,0.8 -15.9,1.5 -22.6,1.5 -6.9,0 -20.1,1.1 -31,2.5 -10.4,1.4 -35.1,4.5 -54.9,7 -19.8,2.5 -38.7,5 -42,5.5 -3.3,0.5 -13.8,1.9 -23.3,3 -19,2.2 -53.6,2.7 -65.2,1 -3.6,-0.6 -13.9,-1.4 -23,-2 -20.2,-1.2 -38,-4.6 -38,-7.4 0,-3.2 9.8,-4 54,-4.6 42,-0.6 50.6,-1.2 69.5,-4.6 5.7,-1 16,-1.4 35.6,-1.4 15.2,0 30,-0.4 33,-1 6.7,-1.1 23.8,-3.4 42.4,-5.5 7.7,-0.9 17.6,-2.3 22,-3.1 4.7,-0.8 14.5,-1.4 23.4,-1.4 8.9,0 19,-0.6 24,-1.5 8.2,-1.4 37.7,-5 52.6,-6.5 7.9,-0.8 30.1,-6.6 41.5,-10.9 9.5,-3.6 31.7,-9.4 33,-8.6 0.6,0.3 1,2.6 1,5.1 0,3.9 -0.4,4.7 -3.1,6.3 -1.8,1.1 -6.4,2.7 -10.3,3.7 -3.9,0.9 -12,3.4 -18,5.6 -5.9,2.1 -15.3,5 -20.8,6.3 -10.8,2.8 -18.2,5.4 -17.4,6.3 1,0.9 14.9,0.1 21.6,-1.3 3.6,-0.7 15.6,-2.5 26.6,-3.9 13,-1.7 22.8,-3.5 27.5,-5.2 4.1,-1.4 20,-6.1 35.4,-10.5 36.6,-10.4 48.2,-14.3 58.5,-19.4 4.7,-2.3 12.3,-5.5 16.9,-7 20.1,-6.6 35,-14.4 49.1,-25.6 11.7,-9.3 17.2,-15.2 36,-38.9 9,-11.3 19.4,-23.7 23.1,-27.5 3.7,-3.9 8,-8.6 9.5,-10.5 1.5,-1.9 11.8,-12.7 22.9,-24 21.2,-21.5 27.5,-29 34.5,-40.5 6.5,-10.7 14.2,-19.7 22.7,-26.6 6.2,-5 7.1,-5.4 4.2,-2.3 -6.3,7 -11.5,13.8 -15.4,20.4 -6.5,11 -13.1,18.7 -34,40 -11.1,11.3 -22.9,23.9 -26.2,28 -3.4,4.1 -7.9,9.3 -10.2,11.5 -4.4,4.2 -5.2,6.5 -2.3,6.5 2.7,0 11.2,-2.5 18.1,-5.4 3.6,-1.4 6.8,-2.6 7.3,-2.6 0.5,0 -3,3.7 -7.8,8.3 -8.8,8.3 -14.3,12.3 -31.4,23 -5.2,3.3 -11.7,7.8 -14.5,10 -7.3,5.9 -18.5,17 -18.5,18.3 0,2.2 3.7,4.4 7.3,4.4 2.5,0 5.7,-1.3 10.2,-4 3.6,-2.2 10.7,-6.1 15.8,-8.6 12.4,-6.2 19.9,-10.8 27.7,-16.8 9.3,-7.1 41.8,-39.4 51,-50.6 4.3,-5.2 15.1,-16.7 24,-25.5 8.9,-8.8 19.7,-20.3 24,-25.5 8.1,-9.9 15.8,-17.5 24.7,-24.3 2.9,-2.1 10.4,-10.4 16.8,-18.3 l 11.5,-14.3 V 3055 c 0,-9 -0.4,-14 -1,-14 -0.6,0 -2.9,0.9 -5,2 -3.7,1.9 -4,1.9 -4,0.3 0,-4.1 2.3,-15.5 5,-25.3 1.6,-5.8 4.1,-19.5 5.5,-30.6 2.6,-19.7 2.6,-20.3 1.1,-30.8 -0.9,-5.8 -1.6,-15.6 -1.6,-21.6 0,-9.1 -0.5,-13 -2.9,-21.8 -1.6,-5.9 -3.2,-13 -3.6,-15.7 -0.3,-2.8 -0.8,-6.2 -1.1,-7.7 -0.5,-2.6 0,-3 10.5,-8.3 6.1,-3 11.1,-6 11.1,-6.6 0,-0.6 -1.5,-3.7 -3.4,-6.8 -1.9,-3.1 -5.5,-9.9 -8.2,-15.1 -2.6,-5.2 -7.3,-12.7 -10.4,-16.5 -7.1,-8.8 -13.8,-20 -23.3,-39 -8,-16.2 -12.6,-30.4 -14.7,-45.5 -0.6,-4.7 -2.4,-13 -4,-18.5 -6.1,-21.6 -7.9,-59.1 -4.1,-85.7 1.1,-7.3 3.6,-26.8 5.6,-43.3 3.2,-25.9 4.2,-31.6 7.5,-42 2.1,-6.6 7,-23.5 11,-37.5 4,-14 7.7,-26.1 8.2,-26.7 0.6,-0.7 3.5,-2.7 6.4,-4.4 3,-1.7 7.8,-5 10.8,-7.5 3,-2.4 5.7,-4.4 6,-4.4 0.3,0 0.6,0.9 0.6,2 0,1.1 0.6,2.3 1.4,2.6 0.7,0.3 9.4,-3.5 19.2,-8.4 15.1,-7.6 18.8,-9.9 23.4,-14.7 3,-3.1 8.3,-7.9 11.8,-10.7 6,-4.8 6.7,-5.9 14.8,-21.9 4.6,-9.3 8.4,-17.6 8.4,-18.4 0,-1 -1,-1.5 -3.2,-1.5 -1.8,0 -4,-0.5 -4.8,-1 -1.3,-0.8 -1.3,-1.4 0.4,-4.2 1.1,-1.8 5.4,-9.9 9.6,-18 4.3,-8.1 10.8,-19.3 14.6,-25 3.7,-5.7 9.3,-14.4 12.4,-19.4 3.2,-5 8.4,-12.5 11.6,-16.6 3.3,-4.2 8.5,-11.8 11.6,-16.9 13.7,-22.3 20,-31.9 25.7,-39.1 5.8,-7.4 7.4,-10.8 5,-10.8 -1.7,0 -13.8,9.2 -18,13.7 -7.3,7.7 -36.3,44.8 -41.2,52.6 -2.7,4.5 -9.7,14 -15.4,21.1 -6.6,8.2 -12.2,16.4 -14.9,21.8 -2.4,4.9 -6.2,11.7 -8.4,15.3 -2.2,3.6 -5.8,10.2 -8.1,14.7 -5.5,11 -13.3,23.9 -15.8,26.2 -2.9,2.6 -2.7,1.7 1.9,-7.4 2.2,-4.4 4,-9.3 4,-10.9 0,-1.5 0.7,-4.8 1.5,-7.1 1.4,-4.1 1.3,-6 -0.4,-6 -1.4,0 -11.9,13.4 -16.7,21.3 -4.9,7.9 -10.8,24.8 -11.9,33.9 -0.4,3.2 -1.2,6.2 -1.9,6.7 -1.4,1.2 -13.4,3.7 -14.1,3 -1.6,-1.7 8.6,-25 17.2,-39.2 12.5,-20.6 19,-28.4 33.7,-40.1 3.8,-3 7.5,-7.2 10.3,-11.9 2.4,-3.9 12,-16.6 21.2,-28.1 9.3,-11.6 18.7,-24.2 21,-28 2.3,-3.8 11.7,-16.4 21,-28 9.2,-11.6 18.5,-24 20.7,-27.6 4.9,-8.3 13.6,-19.2 23.8,-30 9.5,-10 12.6,-14 21,-27.5 3.5,-5.5 9.1,-14.5 12.6,-20 3.5,-5.5 9.6,-16.2 13.6,-23.7 4,-7.5 11.8,-20.8 17.4,-29.4 5.7,-8.6 13.7,-22.2 17.9,-30.3 4.3,-8 9,-16.6 10.6,-19.1 4.6,-7.3 34.2,-43.9 42,-52 12.2,-12.7 16.4,-18.7 26.1,-38 19.1,-37.3 23.1,-44.4 26.1,-45.7 4.8,-2.1 5.8,-1.7 3.7,1.4 -1,1.6 -4.2,6.7 -7.2,11.6 l -5.4,8.7 3,4.8 c 1.7,2.6 4.7,6.3 6.7,8.2 l 3.5,3.4 13.6,-13.4 c 14.1,-14.1 18.6,-20.3 27.4,-37.9 2.3,-4.7 5.2,-10.1 6.5,-12 1.2,-2 4.7,-8.6 7.7,-14.6 4.7,-9.3 5.7,-12.1 6.1,-18 0.7,-9.5 10.7,-42.4 17.8,-58.6 3.6,-8.4 6,-15.5 18.8,-56.9 8.1,-26.2 7.7,-24.6 10.7,-49 4.2,-35.6 5.1,-39.9 13.9,-70.8 4.6,-16.3 8.9,-33.5 9.5,-38.2 0.7,-4.7 2.7,-14.1 4.5,-21 2.1,-7.5 4.4,-20.3 5.9,-32.2 2,-15.6 3.6,-23.4 7.6,-37.5 7.5,-26.2 10.8,-35.8 15.7,-45.6 3.2,-6.5 4.6,-10.7 5.3,-16.5 0.6,-4.2 2.6,-14.2 4.5,-22.2 1.9,-8 4.6,-23.5 6,-34.5 1.4,-11 3.2,-24.3 4,-29.5 0.7,-5.2 3.3,-24.6 5.6,-43 l 4.1,-33.5 -1.6,-13.5 c -0.9,-7.4 -1.6,-18.5 -1.6,-24.5 0,-10.8 -1.2,-21.6 -7,-65 -9.7,-72.1 -9,-64.3 -9,-102.7 0,-21 0.5,-38.6 1.2,-43.8 1.1,-8.4 1,-9.2 -1.5,-18.2 -1.5,-5.2 -3.4,-14.7 -4.3,-21.2 -1.3,-10.3 -2.1,-13 -5.8,-20.5 -5.4,-10.7 -13.1,-34 -23.9,-71.7 l -8.3,-29 -5.6,-7 c -3.1,-3.8 -7.4,-10 -9.7,-13.7 -7.2,-11.8 -29.7,-57.8 -32.6,-66.7 -1.6,-4.7 -4.6,-11.3 -6.7,-14.8 -2.1,-3.4 -5.8,-10.1 -8.2,-15 -2.4,-4.8 -6.8,-11.7 -9.7,-15.4 -3,-3.7 -7.4,-10.7 -9.9,-15.5 -3.1,-6 -6.8,-11.1 -11.7,-16.3 -3.9,-4.1 -9.1,-9.9 -11.4,-12.9 l -4.3,-5.3 1.3,-4.7 c 2.4,-8.4 2.5,-8.2 -3.4,-15.5 -3,-3.8 -7.6,-10.3 -10.1,-14.5 -2.6,-4.2 -7,-9.9 -9.8,-12.6 -2.9,-2.8 -12.6,-14.3 -21.5,-25.5 -9,-11.3 -19.6,-23.9 -23.6,-28 -4,-4.1 -9.3,-10.1 -11.9,-13.4 -2.6,-3.2 -7.7,-8.3 -11.4,-11.2 -3.7,-2.9 -9.2,-8.5 -12.3,-12.4 -3.1,-3.8 -8.3,-9.1 -11.5,-11.6 -3.3,-2.6 -9.5,-8.2 -13.9,-12.4 -4.4,-4.2 -11.4,-10.4 -15.5,-13.7 -4.1,-3.4 -9.1,-7.8 -11,-9.8 -5.4,-5.7 -31.7,-26.6 -39,-31 -3.6,-2.1 -9.9,-6.5 -14,-9.8 -4.1,-3.2 -11.5,-7.9 -16.3,-10.4 -4.9,-2.4 -12.1,-7 -16,-10.2 -4,-3.2 -10.1,-7.5 -13.7,-9.7 -3.6,-2.1 -9.8,-6.4 -13.8,-9.6 -4,-3.2 -10.3,-7.6 -14,-9.8 -3.7,-2.2 -10,-6.6 -13.9,-9.8 -6.2,-4.9 -8.5,-6.1 -16,-8.1 -4.9,-1.3 -13.3,-4.5 -18.8,-7.1 -5.5,-2.6 -13.1,-5.8 -17,-7 -3.8,-1.3 -11,-4.3 -16,-6.8 -6,-3 -16.6,-6.7 -32.5,-11.2 -12.9,-3.8 -26,-7.7 -29,-8.8 -6.2,-2.2 -34.9,-16.6 -45.5,-22.9 -4,-2.3 -11.1,-5.3 -16.4,-6.8 -5.1,-1.4 -13.2,-4.5 -18,-6.9 -6.9,-3.5 -10.4,-4.5 -18.1,-5.6 -5.2,-0.6 -14,-2.5 -19.5,-4.1 -5.5,-1.5 -15.3,-3.5 -21.7,-4.3 -6.5,-0.9 -15.7,-2.7 -20.5,-4.1 -6.5,-1.9 -11,-2.5 -17.8,-2.5 -4.9,0 -14,-0.7 -20.1,-1.6 -10.3,-1.5 -12.2,-1.5 -23.6,0 -6.8,0.9 -16.3,1.6 -21.2,1.6 -7.8,0 -64.2,-6.5 -90.8,-10.5 -5.4,-0.8 -15.8,-1.5 -23,-1.5 -8.8,0 -21.2,-1 -36.8,-3 -12.9,-1.6 -23.9,-3 -24.5,-3 -1.7,-0.1 13.9,-6 15.8,-6 1,0 5.7,1.1 10.5,2.5 11.4,3.2 44.9,7.5 68.7,8.7 10.5,0.5 38.6,1.3 62.5,1.7 40.9,0.7 44.5,0.9 59.9,3.5 9,1.5 16.6,2.4 16.9,2.1 0.7,-0.7 3.3,-7.6 3.5,-9.5 0.1,-1 -1.7,-2.1 -5.8,-3.3 -35.6,-10.9 -33.6,-10.5 -65,-14.2 -16.5,-2 -36,-4.5 -43.3,-5.6 -10.3,-1.5 -18.9,-1.9 -37.6,-1.9 -27.6,0 -36.5,-0.9 -52.1,-5.1 -26.3,-7.1 -67.5,-10.5 -122,-10 -92.5,0.7 -130.2,0 -147.5,-2.8 -3,-0.5 -12,-1 -20,-1 -8,-0.1 -19.4,-0.8 -25.5,-1.6 -6,-0.8 -16.6,-1.5 -23.5,-1.5 -6.9,0 -17.1,-0.7 -22.7,-1.4 -8.7,-1.2 -11.9,-1.2 -20.5,0 -5.7,0.7 -15.9,1.4 -22.8,1.4 -6.9,0 -18.1,0.7 -25,1.5 -6.9,0.8 -18.1,1.5 -25,1.5 -6.9,0 -17.2,0.7 -23,1.5 -5.8,0.8 -15.9,1.5 -22.5,1.5 -6.7,0 -20.6,1.1 -31.5,2.5 -10.7,1.4 -19.6,2.5 -19.7,2.5 -0.2,0 -0.3,-2.9 -0.3,-6.4 0,-3.6 -0.4,-6.7 -0.8,-7 -0.7,-0.4 -19.3,1.8 -36.7,4.3 -3.8,0.6 -11.7,1 -17.5,1 -9.7,0 -10.2,-0.1 -7,-1.3 1.9,-0.7 7.2,-3.2 11.6,-5.4 4.8,-2.4 15.5,-6.2 26,-9.2 17,-4.9 27.2,-8 61.2,-18.6 8.1,-2.6 28.4,-8.6 45.2,-13.5 16.8,-4.9 37,-10.9 45,-13.4 12.3,-3.9 18,-5 38,-7.6 19.7,-2.5 25.8,-3.7 37.5,-7.4 7.7,-2.4 19.9,-6.2 27,-8.4 15.7,-4.8 33,-12.3 33,-14.2 0,-1.1 -3.3,-1.4 -16.5,-1.6 -15,-0.2 -17.2,0 -24.5,2.3 z M 1748,270 c 42.2,2.6 68.1,4.1 84.5,5 24.1,1.4 38.6,2.8 46.5,4.6 13.1,3 19.4,9.2 11.3,11.3 -9.8,2.4 -17.5,2.2 -45.9,-1.3 -15.5,-2 -36.2,-4 -46,-4.6 -9.9,-0.5 -21.3,-1.3 -25.4,-1.6 l -7.5,-0.6 2.5,2 c 5.4,4.3 22.1,8 57,12.7 33.4,4.5 48.8,5.5 88.5,5.5 37.9,0 52.7,0.9 85.6,5 19.7,2.5 27.2,3 45.5,3 28.8,0 55.6,1.5 78.9,4.6 10.5,1.3 33.2,4.2 50.5,6.5 60.3,7.7 91.2,11.9 92.3,12.6 0.6,0.4 0.3,1.1 -0.9,2 -1.5,1.1 -8.9,1.3 -39.4,1.2 -20.6,-0.1 -41.3,-0.5 -46,-1 -4.7,-0.5 -16.6,-1.3 -26.5,-1.9 -42.3,-2.2 -56.6,-3.4 -84.5,-6.7 -27.9,-3.4 -31.8,-3.6 -73.5,-4.3 -24.2,-0.4 -47.1,-1.3 -51,-1.9 -3.8,-0.6 -22.7,-3.1 -42,-5.6 -45.2,-5.8 -74.3,-9.9 -88,-12.4 -6,-1 -16.9,-2.4 -24.1,-3 -22.2,-1.8 -50,-8.3 -62.7,-14.7 -12.5,-6.3 -16.4,-10.9 -12.3,-14.3 3.8,-3.2 9.1,-3.5 32.6,-2.1 z m -288.2,20.7 c -0.2,1.3 -3.2,2.4 -12.3,4.4 -14.1,3.3 -15.5,3.4 -15.5,1.4 0,-1.5 2.7,-2.4 16.5,-5.5 10.4,-2.4 11.7,-2.4 11.3,-0.3 z m 61.7,11.4 c 0,2 -16.2,7.4 -26.8,8.9 -4.9,0.6 -9.1,0.9 -9.4,0.6 -2.7,-2.6 7.1,-6.9 19.7,-8.5 4.7,-0.6 9.9,-1.5 11.5,-2 3.7,-1.1 5,-0.9 5,1 z m 465.3,55.7 c 0.2,0.6 -1.4,2 -3.5,3.2 -2.1,1.1 -4.6,2.6 -5.5,3.2 -2.2,1.6 -3.6,0.2 -2.2,-2 1.3,-2 8.5,-6.3 9.8,-5.9 0.6,0.2 1.1,0.8 1.4,1.5 z m 229.7,8.7 c 10.3,1.4 41.7,7.5 51.5,10 3,0.7 13.4,3 23,4.9 22.9,4.7 44.4,10.8 44.8,12.8 0.2,1.1 -4.2,3 -17.5,7.6 -9.8,3.4 -21.8,7.3 -26.8,8.7 -8.1,2.2 -64.1,10.5 -71.4,10.5 -7.2,0 -79.9,-17.3 -91.9,-21.8 -7.7,-3 -27.1,-14.1 -28.3,-16.3 -1.3,-2.5 -0.3,-5.6 2.5,-7.4 1.3,-0.9 11.8,-2.7 26.1,-4.5 13.2,-1.7 27.4,-3.7 31.5,-4.5 4.1,-0.8 9.1,-1.7 11,-1.9 6.2,-0.8 35.2,0.4 45.5,1.9 z M 1273,383 c 0,0.5 -3.5,3.7 -7.7,7.1 -4.3,3.4 -12.3,10.8 -17.9,16.4 -10.2,10.3 -22.2,20.5 -24.3,20.5 -1.9,0 -1.2,-3.5 1.7,-7.7 18.3,-27.4 23.2,-32 37.7,-35.9 7.7,-2 10.5,-2.1 10.5,-0.4 z m 587.5,44 c 0.3,0.5 -0.8,3 -2.5,5.5 -1.7,2.5 -3.8,6.6 -4.7,9 -1.7,5 -3,6.4 -3.9,4.1 -0.9,-2.2 1.9,-9.8 5.6,-15.1 3.1,-4.5 4.4,-5.3 5.5,-3.5 z m 203,4.9 c 9.2,1.9 17.3,5.3 21.1,8.9 3.2,3 8.6,12 7.9,13.2 -1.1,1.8 -8.8,1.1 -20.5,-2.1 -26.2,-7 -37.7,-16.9 -24.3,-20.9 4.2,-1.2 6,-1.1 15.8,0.9 z m 367,8.1 c 2.8,0 3.5,0.4 3.5,2 0,1.6 -0.7,2 -3.5,2 -3.9,0 -10.5,-2.8 -10.5,-4.5 0,-2.1 1.2,-2.4 4.1,-1 1.5,0.8 4.4,1.5 6.4,1.5 z M 2009,478.3 c 0,0.7 -1.4,2.6 -3.1,4.3 -1.7,1.6 -3.7,4.1 -4.5,5.6 -0.8,1.6 -2.1,2.8 -2.9,2.8 -3,0 -1.1,-4.6 4.3,-10.3 3.7,-3.8 6.2,-4.8 6.2,-2.4 z m 110.8,7.8 c 8,2.7 17.7,9 20.2,13.1 2.4,3.9 3.5,7.6 2.6,8.5 -2,2 -37,-12.2 -41,-16.6 -1.8,-1.9 -1.8,-2.2 -0.2,-4.6 1.4,-2.1 2.4,-2.5 6.9,-2.5 2.9,0 8.1,0.9 11.5,2.1 z m -81.9,25 c 10.2,12.7 12.6,18.2 12.5,28.4 -0.1,8.4 -2,16 -4.2,16 -0.7,0 -3.9,-3.8 -7.2,-8.3 -8.1,-11.4 -11,-20.4 -11,-34.8 0,-7.9 0.3,-10.4 1.3,-10.4 0.7,0 4.6,4.1 8.6,9.1 z m -888,3.8 c 7.5,5.1 13.9,12.3 19.4,21.9 2.5,4.2 7.5,11 11.2,15 6.6,7.1 7.4,7.6 27.4,17.4 11.3,5.5 25.1,12.2 30.6,14.9 6.7,3.3 13.5,7.7 20.8,13.6 l 10.7,8.7 v 7.2 c 0,9.4 -1,10.4 -9.6,10.4 -7.3,0 -13.2,-1.8 -31.1,-9.6 -11,-4.8 -13.9,-6.6 -27.3,-17.4 -21.3,-17.1 -31.9,-29.3 -43.3,-49.8 -12.6,-22.6 -18.9,-35.1 -18.1,-36.3 0.8,-1.4 2.3,-0.7 9.3,4 z m 607.1,2.6 c 0,0.8 -1.7,1.9 -4.2,2.5 -2.4,0.6 -7,2 -10.2,3.1 -7.1,2.3 -8.6,2.4 -8.6,0.5 0,-2 0.3,-2.1 10.1,-5 9.8,-2.9 12.9,-3.2 12.9,-1.1 z m -647.2,16.3 c -4.9,14.5 -8.5,22.5 -10,22 -2.1,-0.7 -4,-8 -3.5,-13.9 0.7,-7.9 3.7,-13.2 9.9,-17.4 7.5,-5 8.1,-3.7 3.6,9.3 z m 177.8,1.6 c 6.4,3 12.8,8.6 15.8,14 2.9,5.1 6.2,18.4 4.9,19.7 -0.9,0.9 -6.5,-0.6 -12.9,-3.6 -3.5,-1.6 -19.1,-6.1 -24.5,-6.9 -5,-0.9 -11.7,-6.8 -12.5,-11.1 -2,-11 15.7,-18.4 29.2,-12.1 z m -19.6,33 c 16.7,3.8 39.3,12.8 43.1,17.2 3.3,3.9 3.1,5.3 -1.6,10.3 l -4.6,4.9 -7,-1.8 c -5.3,-1.4 -9.6,-3.6 -18.2,-9.3 -11.6,-7.8 -25.5,-20.7 -24.3,-22.6 0.9,-1.4 0.4,-1.5 12.6,1.3 z m -134.9,14.2 c 0.4,7.1 1.1,15.1 1.7,17.7 l 1,4.9 -10.3,6.8 c -11.5,7.5 -17,9.4 -28,9.4 -8.5,0 -10.7,-1.1 -13.4,-6.7 -4,-8.2 -2.4,-17.3 4,-23.4 6.7,-6.3 14.7,-7.1 21.8,-2.3 4.7,3.2 8.7,3.8 11.4,1.7 0.9,-0.6 2.8,-5 4.3,-9.7 3.1,-10.2 4.2,-12.2 5.7,-11.7 0.8,0.2 1.4,4.7 1.8,13.3 z m 22.8,-1.4 c 2.4,4.9 1.4,7.3 -1.9,4.3 -1.9,-1.7 -2.7,-6.4 -1.3,-7.8 0.9,-1 0.9,-1 3.2,3.5 z M 2791,601.7 c 8.2,8.5 19.8,23.9 20.8,27.5 0.3,1.3 -0.1,1.8 -1.4,1.8 -3.5,-0.1 -6.3,-2.5 -11.2,-9.6 -2.7,-3.9 -8.5,-11.7 -13,-17.3 -8.2,-10.2 -8.8,-11.2 -7.6,-12.4 1.2,-1.1 3.7,1 12.4,10 z m -670.9,66.9 c -0.6,3.3 -1.5,9.5 -2.1,13.9 -1.4,11 -3.9,16.5 -5.6,12.2 -0.7,-1.9 4.4,-30.8 5.8,-32.4 2.1,-2.6 3,0.2 1.9,6.3 z m 8.9,86.9 c 0,4.3 -6.2,11.7 -8.2,9.7 -0.8,-0.8 -0.4,-1.9 1.5,-4.1 1.4,-1.7 2.8,-4 3.2,-5.1 0.7,-2.3 3.5,-2.7 3.5,-0.5 z m -198.8,338.1 c 1.5,1.5 -10.4,27.4 -12.6,27.4 -2.2,0 -2,-1.2 1.2,-7.8 1.6,-3.1 4.2,-9 5.7,-13 2.5,-6.5 4.1,-8.3 5.7,-6.6 z m 1081.3,246.1 c 1.3,19.8 -1,40.7 -7,64.3 -0.8,3 -2.1,10.2 -2.9,16 -1.4,9.1 -2.3,12 -7.3,22.2 -4.3,8.9 -6.2,11.8 -7.6,11.8 -1.6,0 -1.8,-0.5 -1.3,-3.3 0.3,-1.7 2.2,-15.4 4.1,-30.2 2,-14.9 4.9,-32.6 6.5,-39.5 1.6,-6.9 3.8,-17.4 5,-23.4 1.8,-9.7 5.3,-24.8 6.5,-28.4 0.2,-0.6 1.1,-1.2 1.9,-1.2 1.1,0 1.6,2.6 2.1,11.7 z M 2910,1802.5 c 0,1.8 -5.2,15 -8.4,21.4 -2.4,4.6 -17.1,27.1 -27.6,42.1 l -5.3,7.5 6.1,-5.9 c 4.9,-4.8 6.2,-5.6 6.8,-4.3 1,2.7 -5.4,20.2 -9.9,27 -2.3,3.4 -12.5,14.5 -22.7,24.7 l -18.6,18.5 -8.4,16 c -10.4,19.7 -27,45.9 -44.9,71 -1.5,2.2 -6.1,8.7 -10.1,14.5 -4.1,5.8 -13.5,18.3 -20.9,27.7 -7.5,9.5 -17.3,22.6 -21.8,29 -16.5,23.7 -21.5,30.1 -33.7,43.3 -16.1,17.6 -18.4,20.4 -26.9,32.9 -4,5.8 -13.3,18.2 -20.7,27.6 -7.5,9.3 -16,20.6 -19,25 -8.6,12.9 -15.2,21.4 -24,31 -4.5,4.9 -14.5,16.9 -22.3,26.5 -7.8,9.6 -17.4,21.1 -21.5,25.5 -4.1,4.4 -13.7,15.9 -21.4,25.5 -13.8,17.2 -27.3,32 -29.2,32 -2,0 -4.6,-3.5 -4.6,-6.2 0,-4.4 3.1,-9.5 11,-18.3 3.9,-4.4 9.8,-11.6 13.1,-16 9.7,-13 14.9,-19.3 22.4,-27.4 3.9,-4.2 13.4,-15.5 21.2,-25.1 7.7,-9.6 18.3,-22.2 23.5,-28 12.6,-13.9 33.2,-40 42,-53 7.6,-11.2 12.4,-17.2 22.7,-28.5 3.6,-3.8 12.9,-15.1 20.8,-25 13.6,-17 19.3,-24.8 42.3,-58.4 11.5,-16.7 15.9,-22.6 24.3,-32.2 12.1,-13.8 21.4,-28.4 33.9,-53.4 15.5,-30.7 20.7,-39.9 28.9,-51 9.9,-13.4 30.4,-46 39.3,-62.5 4.3,-8 9,-16.2 10.5,-18.3 1.4,-2 7.6,-11 13.8,-20 14.5,-21 21.6,-28.8 30.2,-33.2 7.4,-3.8 9.1,-4.2 9.1,-2 z m -691,55.6 c 0,0.6 -2,3.6 -4.4,6.7 -2.4,3.1 -5.7,8.5 -7.5,11.9 -3,6.1 -4.3,7.3 -5.6,5.3 -1.5,-2.5 12.9,-25 16.1,-25 0.8,0 1.4,0.5 1.4,1.1 z m -13.9,70.5 c 0.3,2.1 1.1,4.9 1.8,6.2 1.2,2.2 0.8,4.2 -0.9,4.2 -1.5,0 -5,-7.6 -5,-10.8 0,-5.8 3.2,-5.5 4.1,0.4 z M 877.4,2087.4 c 9.4,3.9 12,20.1 5.7,34.9 -2.3,5.4 -14.1,20.9 -15.5,20.4 -0.6,-0.2 -2.5,-3 -4.3,-6.3 -3.5,-6.5 -5.3,-16.5 -5.3,-29 0,-16 8.4,-24.6 19.4,-20 z m -24.7,84.6 c 2.8,1.2 5.4,3.6 7.5,6.6 6.6,9.6 13.6,18.7 17.8,23 8.1,8.6 26.5,15.7 43.2,16.8 14.6,1 23,2.8 60.8,13.6 19,5.4 39.1,10.8 44.5,12 10.5,2.2 13.1,3.4 10,4.6 -1.6,0.7 -13.9,0.1 -58.3,-2.6 -8.6,-0.5 -28.8,-1.4 -44.7,-2 -16,-0.5 -33.4,-1.4 -38.9,-2 -12.3,-1.4 -27.5,-5.8 -39.1,-11.5 -7.7,-3.7 -10.3,-5.6 -17.5,-13.2 -4.7,-4.8 -9.4,-10.6 -10.4,-12.7 -3.5,-7.4 -0.4,-21.9 6.2,-29 5.4,-5.7 11.7,-6.9 18.9,-3.6 z m 243.3,5.4 c 0,1.7 -2.4,2.8 -4.5,2 -2.7,-1.1 -1.7,-3.4 1.5,-3.4 1.9,0 3,0.5 3,1.4 z m -32,30.1 c 4,3.8 4.6,6.9 4.2,19.7 l -0.4,10.8 h -5.7 -5.7 l -6.7,-6.8 c -3.7,-3.8 -7.1,-8.2 -7.6,-9.9 -1.4,-4.8 0.5,-10.8 4.7,-14.4 3.2,-2.8 4,-3.1 8.9,-2.7 4.2,0.4 6,1.1 8.3,3.3 z m 39,16.4 c 0.6,1.6 2.5,4.1 4.1,5.7 3.1,2.9 3.8,5.4 1.6,5.4 -2.9,0 -11.6,-11.7 -10,-13.4 1.4,-1.4 3.1,-0.4 4.3,2.3 z m 1479.5,62.1 c 1.6,2.6 -29,48.8 -42.2,63.6 -5.9,6.7 -17.3,13.6 -17.3,10.6 0,-1.1 4.6,-7.7 11.2,-16 3.1,-4 8.9,-11.8 12.8,-17.5 3.8,-5.6 9.5,-13.1 12.5,-16.7 3,-3.6 8.9,-10.7 13.1,-15.8 7.6,-9.1 8.7,-10.1 9.9,-8.2 z m -1741.3,33.6 c 0.4,0.3 0.2,2 -0.4,3.7 -0.5,1.8 -1.3,7.2 -1.6,12.2 -0.6,7 -1,9 -2.2,9 -2.2,0 -2.5,-10.4 -0.4,-18.7 1.4,-6.1 2.9,-8 4.6,-6.2 z M 988.7,2475 c 6.8,24.2 9.5,53 5.1,53.8 -2.1,0.4 -3.2,-2.9 -5.8,-17.3 -1.1,-6.1 -2.4,-12.6 -3,-14.5 -1.6,-5.2 -4,-24.5 -4,-31.8 0,-5.4 0.3,-6.3 1.7,-6 1.2,0.2 2.8,4.4 6,15.8 z m -144.8,21.3 c 1.3,3.4 3.2,7.8 4.3,9.7 3.7,6.5 7.6,17.6 9.8,28 2.5,11.6 2.3,23.5 -0.6,31.3 -3.2,8.6 -3.7,11.7 -2.6,14.3 0.7,1.3 2,2.4 3.1,2.4 2.9,0 7.9,4.6 8.6,8 0.8,3.6 -2.3,10 -10.1,21.1 -5.6,8 -10,16.6 -9,17.6 0.6,0.7 4.7,-2.1 14.8,-10 7,-5.5 22.1,-14.5 44,-26.3 7,-3.7 16.4,-9.7 20.8,-13.2 9.4,-7.5 11.6,-7.4 7.7,0.4 -3.5,6.9 -30.7,32 -48.8,44.9 -4.6,3.3 -12,9.6 -16.5,14 -6.6,6.5 -9,9.8 -13.1,18 -7.2,14.2 -12.4,33.3 -14.8,55.2 -1.4,12.7 -2.5,16.3 -5.1,16.3 -0.9,0 -4.2,2 -7.4,4.5 -3.3,2.5 -6.9,4.5 -8.3,4.5 -5.7,0 -11.4,-7.9 -14.6,-20.5 -6.2,-23.8 -7.3,-31.4 -7.8,-52.1 -0.5,-17.9 -0.3,-21 1.5,-28 3.3,-12.9 9.7,-28 19.9,-46.5 16.4,-29.8 15.8,-28.3 15.7,-36.9 0,-4.1 -0.8,-11.1 -1.7,-15.5 -2.7,-12.9 -2.2,-23.8 1.4,-36.4 1.7,-5.8 3.3,-10.9 3.5,-11.3 1.1,-1.8 3.1,0.7 5.3,6.5 z m 397.1,13.4 c 1.3,3.2 3.8,8.8 5.7,12.5 3.6,7.3 4.1,9.8 2,9.8 -3.4,0 -8.7,-9 -11.3,-19.4 -1.6,-6.3 -1.4,-10.3 0.5,-9.2 0.5,0.3 1.9,3.2 3.1,6.3 z m -337.8,284.9 c 0.3,4.3 1.1,9.5 1.7,11.4 1.5,4.8 1.4,6.2 -0.6,5.8 -2.3,-0.4 -4.3,-8.5 -4.3,-18.1 0,-5.9 0.3,-7.8 1.3,-7.5 0.7,0.3 1.5,3.4 1.9,8.4 z M 2451,3076.4 c 0,1.6 -11.9,13 -18.8,18 -4,2.9 -5.6,3.6 -6.5,2.7 -1.4,-1.4 7.5,-10.7 17.2,-18.2 6.1,-4.7 8.1,-5.3 8.1,-2.5 z m -33,4 c 0,0.2 -0.8,1 -1.7,1.7 -1.6,1.3 -1.7,1.2 -0.4,-0.4 1.3,-1.6 2.1,-2.1 2.1,-1.3 z m -4,2.9 c 0,0.2 -1,1.2 -2.2,2.3 l -2.3,1.9 1.9,-2.3 c 1.8,-2.1 2.6,-2.7 2.6,-1.9 z m -5,4 c 0,0.2 -1,1.2 -2.2,2.3 l -2.3,1.9 1.9,-2.3 c 1.8,-2.1 2.6,-2.7 2.6,-1.9 z m 3,24.9 c 0,2.1 -12.2,22.2 -16.7,27.6 -5.5,6.4 -22.9,19.6 -24.9,18.8 -1.9,-0.7 -0.6,-3.4 3.8,-7.3 5.7,-5 15.5,-16 25.4,-28.4 8.7,-10.8 12.4,-14 12.4,-10.7 z"
       id="path4"
       inkscape:connector-curvature="0"
       style="fill:#000000;stroke:none;stroke-width:0.1" />
    <path
       d="m 2156.8,379.7 c -3.6,3.8 -5.8,7.3 -5.8,9.2 0,1.5 15.7,9.2 25.5,12.6 4.4,1.6 8.7,3.4 9.6,4.2 2.2,1.9 92.3,2 91.7,0 -0.2,-0.6 -8,-5.1 -17.3,-9.8 -16.2,-8.3 -17.5,-8.8 -27.9,-10.3 -6,-0.9 -14.7,-2.8 -19.4,-4.1 -6.8,-2 -10.9,-2.5 -19.7,-2.5 -6,0 -15.3,-0.7 -20.5,-1.5 -12.6,-1.9 -12.1,-2 -16.2,2.2 z"
       id="path6"
       inkscape:connector-curvature="0"
       style="fill:#000000;stroke:none;stroke-width:0.1" />
    <path
       d="m 1765.5,193.6 c -4.4,1.4 -13.2,3.3 -19.5,4.2 -8.8,1.3 -11.6,2.1 -11.8,3.4 -0.4,1.9 -0.2,1.9 25.7,5.3 12.6,1.6 24.3,2.5 33.2,2.5 13.6,0 34.5,-2.3 36.3,-4 0.6,-0.6 -0.7,-2.7 -3.1,-5.3 -2.3,-2.4 -4.4,-5.4 -4.8,-6.6 -0.6,-2.1 -0.9,-2.1 -24.3,-2 -22.1,0.1 -24.2,0.3 -31.7,2.5 z"
       id="path8"
       inkscape:connector-curvature="0"
       style="fill:#000000;stroke:none;stroke-width:0.1" />
    <path
       d="m 1668.5,198 c -2.7,0.5 -11.1,0.9 -18.5,0.9 -11.5,0.1 -15.4,0.6 -25.9,3.1 -6.8,1.7 -16.9,3.7 -22.5,4.6 -9.6,1.4 -23.4,5 -36.1,9.4 -9.7,3.4 -32.3,8.8 -42,10.1 -9.8,1.3 -13.4,2.9 -20.2,9.3 -7.3,6.6 -6.8,6.9 13.5,6.3 19.9,-0.5 41.5,-3.3 59.2,-7.7 6.3,-1.6 15.3,-3.4 20,-4 4.7,-0.6 13.4,-2.5 19.4,-4.2 l 10.9,-3 7.1,2.8 c 3.9,1.5 8.7,3.1 10.6,3.4 l 3.5,0.7 -2.9,1.2 c -1.6,0.6 -7.2,1.9 -12.5,2.7 -14.2,2.2 -15.6,2.7 -15.9,5.1 -0.2,1.2 0.6,3.1 1.7,4.2 3.6,3.6 25.8,2.8 60.6,-2 4.4,-0.6 12.7,-2.4 18.5,-4 l 10.6,-2.9 8.4,2.5 c 5,1.5 18.1,3.8 31.5,5.5 21.9,2.8 24.7,3 59.5,3 39.4,-0.1 47.4,-0.7 66,-5.5 10.1,-2.6 10.9,-2.7 20,-1.5 9.1,1.2 24.1,2.1 67.5,3.9 20.9,0.9 55.4,5.1 62.6,7.6 4.9,1.7 15.5,2 16.5,0.4 0.3,-0.6 -0.7,-2.5 -2.4,-4.2 -1.6,-1.8 -3.7,-4.7 -4.6,-6.5 -0.9,-1.7 -1.8,-3.2 -1.9,-3.2 -0.4,0 -30.1,-4 -48.7,-6.5 -10.2,-1.4 -22.3,-3.6 -26.9,-5 -6.8,-2 -10.7,-2.5 -19.6,-2.5 -6.1,0 -16.5,-0.7 -23,-1.5 -8.6,-1.1 -22.4,-1.5 -49,-1.5 -26.4,-0.1 -40,-0.5 -47.5,-1.5 -6.7,-0.9 -19.7,-1.5 -36,-1.5 -16,0 -29.2,-0.6 -35.5,-1.5 -9.1,-1.2 -55.8,-14 -60.4,-16.5 -2.2,-1.1 -8.1,-1.1 -15.6,0 z"
       id="path10"
       inkscape:connector-curvature="0"
       style="fill:#000000;stroke:none;stroke-width:0.1" />
    <path
       d="m 1665.5,567.6 c -2.7,0.8 -13.5,4.1 -24,7.4 -10.4,3.2 -24.6,7.6 -31.4,9.6 -11,3.4 -14.5,5.3 -12.8,7 1.4,1.5 37.7,-5 49.2,-8.6 6.6,-2.2 15.3,-4.8 19.3,-6 l 7.3,-2.1 -0.3,-4.1 c -0.2,-2.3 -0.7,-4.3 -1.3,-4.4 -0.5,-0.1 -3.2,0.4 -6,1.2 z"
       id="path12"
       inkscape:connector-curvature="0"
       style="fill:#000000;stroke:none;stroke-width:0.1" />
    <path
       d="m 2000,580.6 c 0,4.8 0.5,11.5 1.2,15 1,5.9 1.9,7.2 12.8,20.9 10.3,12.9 12.6,15.2 19,19 8.6,5.1 20.5,9.9 22.5,9.1 1.3,-0.5 1.1,-1.5 -1.4,-6.4 -1.6,-3.2 -3.6,-8.4 -4.4,-11.6 -0.9,-3.1 -2.1,-6.6 -2.9,-7.6 -0.7,-1 -4,-5.4 -7.3,-9.8 -3.3,-4.4 -7.2,-10.1 -8.7,-12.6 -1.9,-3.2 -4.5,-5.6 -9,-8.3 -3.4,-2.1 -9.2,-6.6 -12.9,-10.1 -3.6,-3.4 -7.1,-6.2 -7.7,-6.2 -0.8,0 -1.2,2.7 -1.2,8.6 z"
       id="path14"
       inkscape:connector-curvature="0"
       style="fill:#000000;stroke:none;stroke-width:0.1" />
    <path
       d="m 994,587.5 c -1.9,0.7 -5,1.4 -6.7,1.4 -2.7,0.1 -3.3,0.5 -3.3,2.3 0,4.8 2.3,15.8 5.2,24.6 l 3,9.3 14.3,11.5 c 10,8 15,11.4 16.9,11.4 3.3,0 3.3,0.3 -0.2,-18.5 l -2.8,-15 -6,-7.6 c -3.3,-4.1 -7.7,-10.5 -9.9,-14.2 -4.1,-7.1 -4.8,-7.4 -10.5,-5.2 z"
       id="path16"
       inkscape:connector-curvature="0"
       style="fill:#000000;stroke:none;stroke-width:0.1" />
    <path
       d="m 1494,610.6 c -14.9,2 -23,3.7 -41.7,9 -12.7,3.5 -25.8,7.4 -29,8.5 -3.2,1.1 -10.1,2.8 -15.3,3.8 -7.3,1.3 -9.6,2.1 -9.8,3.4 -0.3,1.6 1.5,1.7 21.8,1.7 h 22.2 l 14.7,-4.6 c 40.3,-12.6 59.7,-20.1 58.9,-22.6 -0.7,-1.9 -1.5,-1.8 -21.8,0.8 z"
       id="path18"
       inkscape:connector-curvature="0"
       style="fill:#000000;stroke:none;stroke-width:0.1" />
    <path
       d="m 1535.5,619.6 c -4.9,1.3 -13.8,3 -19.7,3.9 -17.2,2.6 -47.3,11.8 -47.3,14.5 0,4.3 48.8,-0.3 69.5,-6.5 4.7,-1.4 13,-3.2 18.5,-4 15.3,-2.3 35.5,-7.5 35.5,-9.1 0,-1.2 -4.1,-1.4 -23.7,-1.3 -21.7,0.1 -24.6,0.3 -32.8,2.5 z"
       id="path20"
       inkscape:connector-curvature="0"
       style="fill:#000000;stroke:none;stroke-width:0.1" />
    <path
       d="m 1419.5,643.5 c -5.5,0.7 -15,1.4 -21,1.4 -12,0.1 -14.3,1 -22.2,8.4 -6,5.6 -5.7,5.7 20.4,5.7 h 23.6 l 4.6,-2.9 c 6,-3.9 13.5,-11.6 12.7,-13 -0.9,-1.3 -5,-1.2 -18.1,0.4 z"
       id="path22"
       inkscape:connector-curvature="0"
       style="fill:#000000;stroke:none;stroke-width:0.1" />
    <path
       d="m 1018.7,698.2 c -1.4,1.8 -3.2,4.7 -4,6.4 -2.2,4.4 -8.4,29.2 -10.2,41 -1.3,8.7 -2.2,11.2 -7.3,20.9 -17.8,33.3 -21.1,39.4 -23.4,43.1 -5,7.9 -29.5,57.9 -31.8,64.9 -1.2,3.8 -4.6,12.6 -7.5,19.5 -2.9,6.9 -6.3,15.6 -7.5,19.5 -1.3,3.8 -4.2,10.8 -6.5,15.5 -6.8,13.6 -14.2,38.2 -16.9,55.9 -0.9,5.7 -2.7,14.7 -4.1,20 -1.3,5.4 -3.1,14.4 -4,20.1 -0.9,5.8 -2.9,14.9 -4.4,20.5 -1.6,5.5 -3.5,14 -4.1,19 -0.9,6.5 -2.5,12.1 -6,20.5 -2.7,6.3 -6.5,16.9 -8.5,23.5 -2,6.6 -6.3,20.5 -9.5,31 -3.2,10.4 -7.3,23.7 -9,29.5 -1.8,5.8 -5.6,16.1 -8.5,23 -9.5,22.5 -12.5,34.5 -8.9,35.7 0.7,0.2 2.9,-2 5,-4.9 2.1,-2.9 6.8,-8.5 10.5,-12.3 5.9,-6.2 7,-8 9.4,-15.5 2.9,-8.8 24.4,-53 31.5,-64.4 6.3,-10.4 12.5,-23.4 15.6,-32.6 1.5,-4.7 4.7,-12.9 7,-18.2 3.2,-7.3 4.7,-12.5 5.9,-20.5 1.5,-10.2 5,-23.9 9.5,-36.8 1.2,-3.3 5.7,-18.6 10.1,-34 12.2,-42.7 14,-47.6 27.9,-75.5 7,-14 14,-29.3 15.5,-34 4.7,-14.5 15.3,-33.8 25.1,-45.8 2.5,-3.1 8.4,-13.3 13.1,-22.6 9.7,-19.5 15.9,-29.8 23.6,-39.3 3.4,-4.2 8.6,-13.1 13.7,-23.3 5.9,-11.9 9.5,-17.9 12.9,-21.5 6.1,-6.4 12.1,-14.4 12.1,-16.1 0,-1.7 -0.3,-1.7 -12.4,0.1 -5.5,0.8 -13.9,1.5 -18.8,1.5 h -8.8 l -11.4,-8.5 c -6.2,-4.7 -11.5,-8.5 -11.9,-8.5 -0.3,0 -1.7,1.5 -3,3.2 z"
       id="path24"
       inkscape:connector-curvature="0"
       style="fill:#000000;stroke:none;stroke-width:0.1" />
    <path
       d="m 2045.2,773.5 c 0.4,11.1 2.2,11.1 2.6,0 0.2,-7.2 0,-8.5 -1.3,-8.5 -1.3,0 -1.5,1.3 -1.3,8.5 z"
       id="path26"
       inkscape:connector-curvature="0"
       style="fill:#000000;stroke:none;stroke-width:0.1" />
    <path
       d="m 1439.5,1179.7 c -38.5,5.3 -36.9,4.9 -45.2,9.7 -4.3,2.5 -10.5,5.7 -13.9,7 -6,2.5 -6,2.5 -17.5,1 -41.4,-5.2 -51.5,-6.8 -61.3,-9.6 l -10.9,-3 -21.6,2.6 c -13.6,1.7 -25.7,3.8 -32.6,5.7 -6,1.7 -18.9,4.2 -28.5,5.6 -15.8,2.3 -21.6,2.7 -58.5,3.2 l -41,0.6 -7.5,3.9 c -4.1,2.1 -11.3,5.2 -15.9,6.7 -5.7,2 -12.4,5.4 -20.5,10.7 -6.7,4.3 -13.7,8.8 -15.6,10 -6.7,4 -17.4,19.1 -26.9,38 -4.9,9.7 -10.1,23.7 -10.1,26.9 0,2.2 9.9,37.1 11.3,39.8 1.6,3.1 8.4,11.2 16.7,20 4.2,4.4 9.7,10.7 12.3,14 2.5,3.3 7.7,8.4 11.5,11.4 6,4.6 7.1,6 8.6,10.6 1.9,6.2 5,10.5 6.4,9 0.5,-0.6 2.1,-4 3.5,-7.7 1.5,-3.7 4.5,-9.7 6.8,-13.5 2.3,-3.7 4.3,-7.2 4.6,-7.6 0.3,-0.4 -3.1,-4.5 -7.4,-9 -4.4,-4.5 -9.4,-10 -11.1,-12.1 l -3.1,-4 3.8,-4.2 3.9,-4.1 -1.4,-6.4 c -0.7,-3.5 -1.3,-10.1 -1.4,-14.5 v -8.1 l -5.9,-7.4 c -5,-6.4 -10.1,-14.6 -10.1,-16.4 0,-0.8 11.8,5.3 16.5,8.5 4.6,3.2 16,9 17.5,9 0.6,0 1,-3.7 1,-9.7 v -9.7 l 5.6,9.5 c 3.1,5.1 5.7,9.5 5.8,9.6 0.1,0.1 8,1.5 17.6,3.2 18.6,3.1 22.2,2.8 16.5,-1.3 -1.6,-1.1 -5.4,-4.3 -8.3,-7.1 -5.2,-4.8 -5.4,-5.1 -4.7,-9 1.1,-7.2 6.2,-16.7 10.7,-20 6.9,-5 7.3,-5.1 5.1,-1.4 -5.5,9 -6.3,10.5 -6.3,11.9 0,0.9 5.1,6.6 11.3,12.8 l 11.4,11.4 20.9,-2.7 c 16.2,-2.1 23.6,-3.6 32.9,-6.5 20.7,-6.6 26.4,-7.8 48.5,-10.6 19.7,-2.4 22.3,-2.5 31,-1.4 5.2,0.7 15.8,1.4 23.5,1.7 10.6,0.4 16.1,1.1 22.5,2.9 7.7,2.2 20.1,4 59,9 6.9,0.8 17.2,2.8 23,4.4 5.8,1.6 15.2,3.6 20.9,4.5 5.7,0.8 18.1,3.8 27.6,6.5 21.3,6.1 22.6,6.4 45.8,9.5 15.1,2 23,3.7 39.5,8.5 11.4,3.2 23.4,6.8 26.7,8 21.7,7.5 41,11 61,11 6,0 20.9,1.2 33,2.7 l 22,2.7 8.6,5.1 c 4.7,2.7 11.8,6.6 15.7,8.5 l 7.2,3.4 9.2,-3 c 5,-1.6 9.3,-3.5 9.5,-4.1 0.2,-0.6 -3.6,-4.2 -8.4,-8.1 -4.8,-3.9 -10.8,-9.1 -13.3,-11.7 -2.9,-3.1 -7.9,-6.4 -14.2,-9.6 -5.4,-2.7 -12.7,-6.7 -16.3,-8.9 -3.6,-2.2 -10,-5.7 -14.3,-7.9 -12.4,-6.3 -26.1,-18.1 -37.5,-32.5 -3.4,-4.3 -10.8,-11.1 -20.1,-18.5 -13.4,-10.7 -15.3,-11.9 -23.4,-14.5 -4.8,-1.6 -12.3,-4.7 -16.7,-6.9 -4.4,-2.2 -11.8,-5 -16.5,-6.4 -25,-7.1 -26.3,-7.7 -41.5,-19.8 -8.3,-6.7 -17.3,-12.9 -22,-15.3 -4.4,-2.2 -11.4,-6 -15.5,-8.4 -4.6,-2.7 -11.3,-5.5 -17.5,-7.2 -5.5,-1.6 -13.9,-4.8 -18.7,-7.2 -4.8,-2.4 -9.1,-4.3 -9.5,-4.3 -0.5,0.1 -2.1,0.4 -3.8,0.6 z m -2.5,41.8 c 30.2,2.9 42.8,6.9 61.3,19.3 14.4,9.6 13.5,10.4 -7.5,6.3 -8.4,-1.6 -20.5,-3.7 -26.8,-4.6 -21.8,-3.1 -37.7,-8.4 -47.8,-16 -9.2,-6.9 -9.2,-8 -0.6,-7.1 3.8,0.4 13.4,1.3 21.4,2.1 z"
       id="path28"
       inkscape:connector-curvature="0"
       style="fill:#000000;stroke:none;stroke-width:0.1" />
    <path
       d="m 867,1250.4 c -4.1,3.5 -9.8,8.8 -12.6,11.7 -5.2,5.4 -5.2,5.5 -10.4,23.9 -5.2,18.3 -7.5,23.9 -12.6,29.9 -2.2,2.7 -3.2,3.1 -7.4,3.1 -2.9,0 -5,0.5 -5.2,1.2 -0.8,2.3 5.3,21.1 9.6,29.7 2.4,4.8 5.6,12.4 7.1,17.1 3.5,10.8 8.1,19.9 19,38 6.6,10.9 9.4,16.6 11.2,23 1.3,4.7 3.8,12.7 5.5,17.9 l 3.1,9.4 -1.7,10.6 c -2.8,17.2 -3.4,18.8 -6.9,20 -1.6,0.6 -4.5,1.1 -6.3,1.1 -2.2,0 -3.7,0.6 -4.2,1.7 -2,3.8 -6.1,20.2 -7.3,28.8 -0.8,6.5 -2.5,12.2 -5.9,20.5 -2.6,6.3 -5.8,14.6 -7,18.5 -2.6,7.9 -9,21.3 -15,31 -2.2,3.6 -6.2,11 -9,16.5 -2.8,5.5 -6.8,12.9 -8.9,16.4 -2.2,3.5 -10.3,19 -18,34.3 -9.4,18.8 -17.6,33.3 -25.1,44.8 -12.7,19.6 -20.6,34.4 -24.5,46.5 -1.5,4.7 -4.7,12.3 -7,17 -2.3,4.7 -5.2,11.6 -6.5,15.5 -1.3,3.8 -6.3,14.9 -11.1,24.7 -5.5,11 -9.8,21.1 -11.4,27 -1.5,5.1 -4.2,14 -6,19.8 -2.5,7.9 -4,15.8 -5.9,31.8 l -2.6,21.4 2.6,20.1 c 3,23.6 6,34 14.2,50.1 4,7.9 7.3,12.8 12,17.7 3.5,3.8 6.9,6.6 7.4,6.3 0.6,-0.4 0.8,-2.1 0.5,-3.8 -0.3,-1.7 -1.7,-9.6 -3.1,-17.6 -1.4,-8 -3.7,-23.1 -5,-33.6 l -2.5,-19.1 2.8,-22.4 c 2.3,-18.3 3.5,-24.8 6.9,-35.4 2.2,-7.2 5.7,-18.4 7.7,-25 4.4,-14.4 11,-30.3 16.9,-40.5 6.9,-12 13.1,-25 15.6,-32.5 1.3,-3.9 8.2,-18.9 15.5,-33.5 7.3,-14.6 14.5,-30.3 16,-35 4.3,-13.2 9.8,-23.7 23.7,-45.1 4.3,-6.7 7.9,-13.7 9.7,-19 3.1,-9.2 8.6,-20.6 15.7,-32.6 2.5,-4.3 10.2,-18.9 16.9,-32.4 6.8,-13.5 14.6,-28.4 17.3,-33 2.7,-4.6 7.2,-12.9 10.1,-18.5 2.8,-5.5 8.8,-15.7 13.2,-22.5 11.2,-17.1 15.9,-25 20.9,-34.9 6.1,-12.3 10.6,-19.5 17.3,-28 3.7,-4.7 9,-13.7 14.3,-24.2 L 959,1392 v -9.5 c 0,-5.2 0.7,-14.2 1.6,-20 l 1.5,-10.5 -3,-10.7 c -1.6,-6 -3.5,-15.5 -4.2,-21.3 -1.1,-9.8 -1.5,-11.1 -5.9,-18.5 -2.6,-4.4 -6.6,-11.6 -8.8,-16 -3.2,-6.4 -5.1,-8.8 -9.3,-12 -3,-2.2 -8.8,-7.3 -13,-11.3 l -7.7,-7.3 -16.3,-5.4 c -9,-3 -17,-5.5 -17.9,-5.5 -0.8,0.1 -4.9,2.9 -9,6.4 z m 30.9,89.5 c 5.8,4.1 8.7,14.7 6.1,21.6 -0.6,1.5 -3.1,5.4 -5.6,8.7 -4.5,5.7 -4.8,5.9 -8.2,5.3 -11.4,-2.1 -14.2,-5.5 -14.2,-16.8 0,-9.8 2.8,-15.6 9.5,-19.9 3.6,-2.3 8.2,-1.9 12.4,1.1 z"
       id="path30"
       inkscape:connector-curvature="0"
       style="fill:#000000;stroke:none;stroke-width:0.1" />
    <path
       d="m 1304.5,1333.1 c -6,1.6 -15.7,3.5 -21.5,4.4 -5.7,0.8 -10.7,1.9 -11,2.4 -2.3,3.4 -9.5,11.8 -15.3,17.8 l -7,7.2 -2.3,17.8 c -1.3,9.8 -2.6,19.2 -2.9,20.9 -0.4,2.6 -2.6,4.7 -11.9,11.8 -9.7,7.3 -11.5,9 -12,12 -1.5,7.9 -3.7,13.5 -5,13 -1.4,-0.6 -17,6.9 -27,12.9 -4.9,2.9 -6.6,4.8 -10.7,11.7 -2.7,4.4 -6.5,10.2 -8.4,12.7 -1.9,2.5 -3.5,5.2 -3.5,5.8 0,2 8.7,4.5 15.5,4.5 9,0 19.4,-3.9 47.6,-18 l 24.6,-12.3 3.1,2.3 3.1,2.3 -3.6,7.1 c -3.5,6.8 -9.3,22.7 -9.3,25.2 0,2.1 11.5,9.9 19,12.9 l 7.1,2.9 21.7,-2.8 c 16.8,-2.2 22.5,-3.3 25.2,-4.9 1.9,-1.1 9,-5.6 15.7,-10 l 12.3,-7.9 4.6,-14.6 c 2.6,-8.1 6.2,-19.7 8,-25.7 3.5,-11.3 11.1,-28.5 12.7,-28.5 1.3,0 41.5,11.7 48.2,14 3.3,1.1 10.7,3.4 16.5,5.1 5.8,1.7 13.2,4.5 16.5,6.3 7.2,3.8 9.8,4.9 19.3,7.6 l 7.3,2.1 -3.6,6.7 c -2,3.7 -4.1,7.5 -4.8,8.4 -1.8,2.2 -17,6.6 -29.5,8.3 -9.8,1.4 -43.7,10.6 -72.9,19.7 l -13.1,4.1 -9.2,9.2 c -5.3,5.3 -9,9.8 -8.6,10.4 1.1,1.7 35.5,1.4 47.9,-0.4 10.4,-1.6 48.1,-11.9 75.2,-20.5 29.3,-9.4 46.5,-13.2 82,-17.9 12.1,-1.6 24.3,-3.5 27,-4.1 6.3,-1.3 20.5,-7 20.5,-8.1 0,-1.4 -3,-2.5 -22,-7.9 -18.6,-5.3 -28.7,-9.6 -42.5,-18 -11.1,-6.8 -39.5,-20.6 -48.5,-23.5 -4.7,-1.5 -12.8,-4.9 -18,-7.5 -5.2,-2.6 -12.6,-5.7 -16.5,-7 -3.8,-1.3 -10.8,-4.2 -15.5,-6.5 -5.8,-2.9 -16.6,-6.6 -34,-11.5 -43,-12.2 -49.9,-14.6 -54.5,-19.1 l -4,-3.9 h 18.8 c 17.3,0 19.3,0.2 25.8,2.5 3.8,1.3 12,3.8 18.2,5.6 6.2,1.7 15,5.1 19.7,7.4 4.7,2.3 12.7,5.4 17.9,6.9 5.1,1.5 13.2,4.6 18,7 4.7,2.4 12.4,5.6 17.1,7.1 13,4.3 40.3,18.3 49,25.2 11.4,9 31.5,20.6 62,35.7 22,10.9 30.2,14.4 41,17.6 15.9,4.7 21,5.7 21,4.1 0,-0.6 -3.9,-6.3 -8.6,-12.6 -7.6,-10.1 -9.6,-12.1 -16.1,-16 -4.1,-2.5 -10.5,-7 -14.2,-9.9 -3.6,-3 -10.3,-7.2 -14.9,-9.5 -4.5,-2.3 -11.1,-5.9 -14.7,-8.1 -3.6,-2.2 -10.7,-6.1 -15.7,-8.6 -5.1,-2.6 -12.4,-7.2 -16.3,-10.4 -3.9,-3.2 -11.3,-7.9 -16.5,-10.5 -5.2,-2.6 -12.1,-6.3 -15.2,-8.2 -3.2,-1.9 -10.2,-4.7 -15.5,-6.2 -5.4,-1.6 -13.8,-4.8 -18.8,-7.3 -4.9,-2.5 -12.8,-5.8 -17.5,-7.3 -4.7,-1.5 -12,-4.5 -16.3,-6.7 -6.1,-3 -10.5,-4.3 -19,-5.8 -6.2,-1 -23.8,-5.4 -39.2,-9.8 -25.3,-7.3 -30,-8.3 -48.5,-10.7 -11.3,-1.4 -20.9,-2.7 -21.5,-2.9 -0.5,-0.1 -5.9,1 -12,2.5 z m 22.4,81.5 c 0.6,1.5 2.7,4.5 4.5,6.8 6.1,7.5 9.8,16.6 6.7,16.6 -2.3,0 -16.9,-23.9 -15.4,-25.4 1.3,-1.3 3,-0.5 4.2,2 z m -104,31.8 c 1.4,1.4 2.8,2.6 3.3,2.6 0.5,0 2.5,0.7 4.5,1.5 l 3.6,1.5 -2.3,2.5 c -3.3,3.5 -6,3.1 -10.2,-1.3 -4.3,-4.5 -6.1,-7.8 -5.4,-9.8 0.7,-1.8 3,-0.7 6.5,3 z"
       id="path32"
       inkscape:connector-curvature="0"
       style="fill:#000000;stroke:none;stroke-width:0.1" />
    <path
       d="m 1652.5,1368.5 c -5.5,0.7 -15.3,1.4 -21.7,1.4 -9.5,0.1 -11.8,0.4 -11.8,1.5 0,1.4 1.5,2 16.3,6.1 10.7,3 41.1,6.5 56,6.5 10.3,0 15.7,0.4 18.7,1.5 5.6,2 16,2 16,0.1 0,-0.8 -1.7,-2.5 -3.7,-3.7 -2.1,-1.3 -5.6,-4 -7.8,-5.9 -4,-3.6 -4.1,-3.7 -22,-6 -22.3,-3 -27.4,-3.2 -40,-1.5 z"
       id="path34"
       inkscape:connector-curvature="0"
       style="fill:#000000;stroke:none;stroke-width:0.1" />
    <path
       d="m 1029.7,1376.4 c -5.9,8 -13.1,14.6 -23.5,21.7 -7.5,5.1 -8.2,5.9 -12.1,13.7 -7,14 -13.4,23.5 -30.6,45 -9,11.4 -18.4,23.9 -20.8,27.7 -2.4,3.9 -7,10.5 -10.3,14.7 -3.2,4.2 -8.5,11.8 -11.6,17 -3.2,5.1 -8.9,14.2 -12.8,20.3 -3.9,6 -9.1,15 -11.6,20 -2.6,4.9 -6.8,12.8 -9.5,17.5 -6.9,12.2 -13.1,27.3 -18.4,45 -7.7,25.8 -10.6,34.1 -15,43 -2.3,4.7 -5.2,11.6 -6.5,15.5 -1.2,3.8 -4.6,12.6 -7.5,19.5 -2.9,6.9 -6.3,15.6 -7.5,19.5 -2.6,7.9 -9,21.2 -15,31.1 -2.2,3.6 -9.9,18.2 -17,32.4 -7.1,14.2 -14.8,28.8 -17,32.4 -6.2,10.2 -11.4,21.3 -14.5,30.6 -1.5,4.7 -4.1,11.1 -5.6,14.2 -3.1,6.2 -3.6,8.8 -1.6,8.7 2.4,-0.1 14.4,-5.5 21.9,-9.9 6.3,-3.7 8.2,-5.4 10.8,-10 1.8,-3 6.3,-9.6 10,-14.5 4.1,-5.4 10,-15.5 14.9,-25.2 4.4,-8.9 9.9,-19.2 12.1,-22.8 6,-9.9 13.4,-25.1 16,-33 1.2,-3.9 4.6,-12.6 7.5,-19.5 2.9,-6.9 6.3,-15.7 7.5,-19.5 1.3,-3.9 4.2,-10.8 6.5,-15.5 2.3,-4.7 5.2,-11.7 6.5,-15.5 1.3,-3.9 4,-10.4 6.1,-14.6 2.1,-4.2 5.3,-12.1 7.2,-17.6 2,-5.5 5.4,-14.4 7.8,-19.9 2.3,-5.4 5.4,-13.5 6.9,-17.9 3.3,-9.8 12,-27.2 19.2,-38.5 16.4,-25.6 20.2,-31.9 24.2,-39.8 2.6,-5 6.2,-10.4 8.6,-12.7 6,-5.8 40.8,-49.7 46,-58.2 2.5,-4 7.1,-10.7 10.3,-15 3.3,-4.3 9.9,-14 14.8,-21.6 l 8.9,-13.8 0.1,-11.7 c 0,-6.4 0.6,-15.3 1.3,-19.7 0.8,-4.4 1.2,-8.3 0.9,-8.8 -1.1,-1.8 -3.3,-0.2 -7.6,5.7 z"
       id="path36"
       inkscape:connector-curvature="0"
       style="fill:#000000;stroke:none;stroke-width:0.1" />
    <path
       d="m 1202.4,1547.1 c -0.3,0.6 -0.2,1.5 0.4,2.1 1.5,1.5 4.6,0.5 5,-1.5 0.3,-1.2 -0.3,-1.7 -2.2,-1.7 -1.4,0 -2.8,0.5 -3.2,1.1 z"
       id="path38"
       inkscape:connector-curvature="0"
       style="fill:#000000;stroke:none;stroke-width:0.1" />
    <path
       d="m 1332.2,1570.3 c -2.3,2.3 -4.2,4.8 -4.2,5.5 0,1.8 16.2,9.5 28.5,13.5 28.2,9.2 37.2,10.7 62.9,10.7 16,0 35.8,-1.8 37.3,-3.4 1.4,-1.4 -1,-3.3 -5.8,-4.5 -3,-0.8 -11.5,-3.3 -18.9,-5.7 -8.6,-2.7 -17.1,-4.7 -23.5,-5.4 -5.5,-0.6 -14.7,-2.4 -20.5,-4 -5.8,-1.6 -15,-3.6 -20.5,-4.4 -5.5,-0.9 -13.8,-2.7 -18.5,-4.1 -4.7,-1.3 -9.4,-2.5 -10.5,-2.5 -1.2,0 -4,1.9 -6.3,4.3 z"
       id="path40"
       inkscape:connector-curvature="0"
       style="fill:#000000;stroke:none;stroke-width:0.1" />
    <path
       d="m 2539.5,1577.7 c -3.8,2 -11.5,5.3 -17,7.3 -9.2,3.3 -11.1,4.4 -24.5,15.2 -20.2,16.3 -24.8,22.5 -41.1,55.1 l -9.1,18.2 1.2,7 c 1.1,6.4 6.2,21 7.8,22.7 1.1,1 16.8,-4.4 25.9,-9 4.6,-2.3 11.7,-5.6 15.8,-7.2 8.3,-3.3 25.5,-11.7 25.5,-12.5 0,-3.2 3.5,-22.6 5.1,-28 1.1,-3.9 2.3,-7.8 2.5,-8.8 0.4,-1.4 16.1,-14.1 21,-17 0.6,-0.4 4.2,0.4 8,1.6 3.8,1.3 11.5,3.6 17.2,5.2 l 10.3,2.9 3.6,6 c 2,3.4 6,9.1 9,12.8 6.6,8.3 6.9,9.1 8.3,21 0.6,5.4 2.4,14.1 3.9,19.4 l 2.7,9.7 -1.8,13.6 c -1,7.5 -3.6,27.3 -5.8,44.1 -3.4,26 -4.5,32.4 -8,43.5 -2.2,7.1 -5.8,19.1 -8.1,26.5 -2.2,7.4 -5.6,18.2 -7.4,24 -1.9,5.8 -5.7,18.6 -8.5,28.5 -6,20.8 -11.1,31.7 -24.8,52.6 -4.8,7.4 -10.5,16.3 -12.7,19.9 -7.2,12.1 -21,27.2 -34.5,38.1 -9.7,7.8 -12.9,11.1 -24.9,25.9 -15.1,18.7 -15.1,18.7 -15.1,23.8 0,4.6 2.7,17.1 4.1,18.6 1.2,1.3 13.9,-3.8 22.4,-9 11.5,-7.1 25.4,-21.9 34.5,-36.9 2.4,-3.9 6.8,-10.8 9.8,-15.5 3.1,-4.7 7.7,-12 10.3,-16.2 2.7,-4.3 7.2,-10.8 10.2,-14.5 2.9,-3.8 7.1,-9.7 9.2,-13.3 2.2,-3.6 6.5,-10.4 9.8,-15.3 3.6,-5.4 6.9,-11.9 8.6,-17 1.6,-4.5 4.6,-11.8 6.8,-16.2 2.2,-4.4 5.3,-11.8 6.8,-16.5 1.5,-4.7 4.7,-12.4 7.1,-17.1 2.6,-5.2 6.3,-15.8 9.4,-26.5 2.8,-9.9 7.1,-24.2 9.5,-31.9 2.4,-7.7 6.2,-20.1 8.5,-27.5 2.3,-7.4 6.2,-18.2 8.7,-24 4.7,-11.1 5.3,-13.6 8.4,-37.5 1.4,-10.8 1.9,-21.1 1.9,-36.8 v -21.8 l -5.6,-19.7 c -5.5,-19 -5.8,-19.9 -11,-26.3 -2.9,-3.7 -7.4,-10.1 -10,-14.4 -4.1,-6.7 -6.3,-9 -18.9,-19.1 l -14.2,-11.4 h -21.9 l -21.9,0.1 z"
       id="path42"
       inkscape:connector-curvature="0"
       style="fill:#000000;stroke:none;stroke-width:0.1" />
    <path
       d="m 1275.1,1611.2 c 0,3.5 0.6,7.9 1.3,9.8 1.2,3.2 1.9,3.7 10.2,6.6 12.8,4.5 41.8,8.4 62.2,8.4 18.1,0 25.8,-1 41,-5.2 8.8,-2.4 11.2,-3.5 11,-4.7 -0.3,-1.2 -2.9,-2 -11.3,-3.3 -6.1,-0.9 -14.3,-2.8 -18.4,-4.2 -6.3,-2.2 -9.2,-2.6 -19,-2.6 -15,0 -54.7,-5.1 -66,-8.5 -4.7,-1.4 -9.1,-2.5 -9.8,-2.5 -0.9,0 -1.3,1.7 -1.2,6.2 z"
       id="path44"
       inkscape:connector-curvature="0"
       style="fill:#000000;stroke:none;stroke-width:0.1" />
    <path
       d="m 2431,1700.2 c 0,0.2 -2,16.4 -4.5,35.9 -4.2,33.4 -4.5,36.8 -4.5,60.4 0,13.8 -0.4,24.3 -0.9,23.5 -0.4,-0.8 -1.4,-5.1 -2,-9.5 -1,-6.1 -2.2,-9.6 -5.1,-14.5 -6.3,-10.7 -13.6,-26 -16,-33.5 -1.2,-3.9 -2.8,-7.6 -3.4,-8.3 -1,-1 -4.9,-0.8 -20.2,1.3 -23.4,3.1 -24.4,3.3 -24.4,5 0,2.1 20,7.8 31.6,9 3.3,0.4 6.5,1 7,1.3 0.5,0.4 3.3,8.9 6.2,18.9 l 5.2,18.2 v 21.1 c 0,19.9 -0.2,21.8 -2.9,32.8 -1.6,6.4 -3.4,15.5 -4,20.2 -1.3,9.6 -2.4,14 -8.3,32.5 l -4,13 -7.2,5.6 c -3.9,3 -10,7.3 -13.6,9.5 -3.6,2.1 -13,9.1 -21,15.5 l -14.6,11.6 -3.1,10.4 c -3.4,11.2 -5.7,23.4 -4.8,24.9 0.9,1.5 25.8,1.2 37,-0.5 8.3,-1.3 11,-2.2 17,-5.7 3.8,-2.3 10.2,-6.7 14,-9.9 4.5,-3.6 12.9,-8.6 23.3,-13.8 l 16.2,-8.1 h 21 21 l 17.8,-8.9 c 16,-8.1 18.3,-9.6 24.3,-15.8 11.6,-12 15.5,-17.6 18.5,-26.5 1.5,-4.6 4.6,-12.1 6.9,-16.8 2.3,-4.7 5.7,-12.7 7.4,-17.9 1.8,-5.1 5,-13.4 7.2,-18.4 l 3.9,-9 v -19.1 -19.1 l -20.2,-16 c -11.1,-8.8 -23.6,-19.2 -27.7,-23.1 -4.2,-3.9 -10.7,-9 -14.4,-11.3 -11.1,-6.8 -32.7,-24.7 -38.6,-31.9 -5.8,-7.4 -8.8,-12.7 -13.7,-24.7 -1.9,-4.7 -3.9,-8.1 -4.8,-8.3 -0.9,-0.2 -1.6,-0.2 -1.6,0 z m 76,118.8 c 0,0.8 -4.3,9.6 -11.7,24 -0.2,0.3 2,1.1 4.8,1.7 7.2,1.8 11.4,4.7 13.9,9.7 4.4,9.2 3.8,16.9 -3.1,38.1 -3.4,10.5 -11.6,27.4 -15.3,31.2 -0.9,1 -3.7,0.9 -13.2,-0.6 -13.3,-2 -18.4,-3.9 -26.1,-9.7 -8.7,-6.6 -10.7,-10 -16.9,-28.7 -6.1,-18.2 -6.9,-24 -4.1,-29.4 2.9,-5.6 5.1,-6.6 14.1,-6.9 11.3,-0.4 17.7,-3 26.9,-10.8 15.4,-13 30.7,-22.3 30.7,-18.6 z"
       id="path46"
       inkscape:connector-curvature="0"
       style="fill:#000000;stroke:none;stroke-width:0.1" />
    <path
       d="m 2545.5,1730.2 c -0.3,1.3 -0.9,4.3 -1.5,6.8 -0.5,2.5 -1,9.7 -1,16.1 0,10 0.3,11.8 1.8,13.2 4,3.6 4.2,2.6 4.2,-18.3 0,-17 -0.2,-20 -1.5,-20 -0.8,0 -1.7,1 -2,2.2 z"
       id="path48"
       inkscape:connector-curvature="0"
       style="fill:#000000;stroke:none;stroke-width:0.1" />
    <path
       d="m 2808.5,2013.6 c -10.8,8.5 -15.7,13.7 -28.7,29.7 -13.5,16.7 -20.1,26.8 -24.2,37.4 -2.6,6.5 -2.8,9.3 -0.7,9.3 0.4,0 2.3,-2.1 4.1,-4.8 1.8,-2.6 9.3,-10.8 16.5,-18.2 16,-16.4 19.6,-20.8 27.2,-33 3.3,-5.2 8.1,-12.7 10.7,-16.7 4.2,-6.3 5.1,-9.3 2.8,-9.3 -0.4,0 -3.8,2.5 -7.7,5.6 z"
       id="path50"
       inkscape:connector-curvature="0"
       style="fill:#000000;stroke:none;stroke-width:0.1" />
    <path
       d="m 1059.5,2023.2 c -0.3,0.8 -0.4,7.2 -0.3,14.4 0.3,10.7 0.6,12.9 1.8,12.9 1.3,0 1.5,-2.2 1.5,-13.9 0,-10.3 -0.3,-14 -1.2,-14.3 -0.7,-0.3 -1.5,0.2 -1.8,0.9 z"
       id="path52"
       inkscape:connector-curvature="0"
       style="fill:#000000;stroke:none;stroke-width:0.1" />
    <path
       d="m 2278.3,2038.2 c -7.4,7.6 -10.2,11.2 -10.8,13.8 -0.4,1.9 -3.1,10.9 -6,20 -10.5,33 -12.5,42.7 -12.5,63.3 0,20 2.2,32.3 10.6,57.7 3.3,10.1 3.7,10.9 10.2,17.1 6.2,6.1 17.5,13.9 20.1,13.9 2.3,0 14.9,-5.6 21.6,-9.6 6.9,-4.2 7.2,-4.2 27,-6.9 34.1,-4.4 40.6,-5.5 52.8,-8.6 6.5,-1.6 15,-4.2 19,-5.8 4,-1.5 10.8,-4 15.3,-5.5 l 8.1,-2.7 11.3,-14.2 c 9.6,-11.9 11.7,-15.1 13.1,-20.2 0.9,-3.4 2.8,-8.4 4.3,-11.3 2.7,-5.4 3.3,-8.2 1.6,-8.2 -1.5,0 -18,8.4 -25.5,13 -8.6,5.3 -27,12.9 -42,17.5 -6.6,2 -17.7,5.4 -24.6,7.5 l -12.5,3.9 -22,-2.7 c -21.7,-2.7 -22,-2.8 -28.4,-6.7 -11.3,-6.7 -20.4,-14.8 -21.8,-19.2 -0.7,-2.1 -3.1,-9.8 -5.4,-17.2 l -4,-13.4 1.2,-9.1 c 0.6,-5 2.5,-14.5 4.1,-21 1.7,-6.6 4.1,-19.6 5.4,-29 3.8,-28.1 3.7,-26.6 1.7,-26.6 -1,0 -6.4,4.6 -11.9,10.2 z"
       id="path54"
       inkscape:connector-curvature="0"
       style="fill:#000000;stroke:none;stroke-width:0.1" />
    <path
       d="m 1109.9,2057.2 c 0,0.7 0,5.1 0.1,9.8 l 0.1,8.5 4.7,4.8 c 5,5.2 20.3,17.7 23.9,19.6 2.5,1.3 9.9,1.5 10.7,0.3 0.3,-0.5 -0.4,-2.1 -1.5,-3.8 -1.1,-1.6 -3.7,-6.3 -5.9,-10.4 -3.2,-6.4 -5,-8.4 -11.7,-13.7 -4.3,-3.4 -10,-8.4 -12.8,-11.2 -4.8,-5 -7.4,-6.3 -7.6,-3.9 z"
       id="path56"
       inkscape:connector-curvature="0"
       style="fill:#000000;stroke:none;stroke-width:0.1" />
    <path
       d="m 2415,2069.6 c -18.5,14.8 -19.6,17.4 -4.8,11.5 4,-1.5 11.1,-4.1 15.6,-5.6 8.1,-2.6 8.4,-2.8 7.7,-5.4 -0.3,-1.4 -0.9,-4.6 -1.3,-7 -0.4,-2.5 -1.1,-4.6 -1.7,-4.8 -0.5,-0.1 -7.5,4.9 -15.5,11.3 z"
       id="path58"
       inkscape:connector-curvature="0"
       style="fill:#000000;stroke:none;stroke-width:0.1" />
    <path
       d="m 1185,2081.6 c 0,2.9 3.7,13.7 5.7,16.9 3.9,6 13.9,18.3 20.2,24.7 4.1,4.3 6.2,5.8 8.3,5.8 3.8,0 3.5,-1.9 -0.8,-6.1 -2,-1.8 -5.4,-6.1 -7.7,-9.4 -2.3,-3.3 -6.6,-9.2 -9.6,-13.1 -3.1,-3.9 -7.3,-9.9 -9.4,-13.3 -2,-3.3 -4.4,-6.1 -5.2,-6.1 -0.8,0 -1.5,0.3 -1.5,0.6 z"
       id="path60"
       inkscape:connector-curvature="0"
       style="fill:#000000;stroke:none;stroke-width:0.1" />
    <path
       d="m 2101,2235 c 0,6.9 0.3,9.1 1.3,8.7 0.8,-0.2 1.2,-2.9 1.2,-8.7 0,-5.8 -0.4,-8.5 -1.2,-8.8 -1,-0.3 -1.3,1.9 -1.3,8.8 z"
       id="path62"
       inkscape:connector-curvature="0"
       style="fill:#000000;stroke:none;stroke-width:0.1" />
    <path
       d="m 1062.7,2503.7 c -1.3,1.3 -0.7,70.3 0.7,80.8 l 1.3,10 -3.9,8 c -2.2,4.3 -5.9,11.1 -8.3,15 -2.3,3.8 -8.1,14.6 -12.8,24 -6,12.1 -9.7,18.1 -12.6,21 -4.1,3.9 -5.2,6.5 -2.8,6.5 0.6,0 8,-1.2 16.2,-2.6 l 15,-2.7 6.8,-6.6 c 3.8,-3.6 9.1,-9.4 11.9,-12.9 4.9,-6.1 5.4,-7.3 10.9,-26.5 l 5.8,-20.2 0.1,-20.8 v -20.8 l -5.6,-19.7 c -4.9,-17.5 -5.9,-20 -8.6,-22.2 -1.7,-1.4 -5.3,-4.4 -8,-6.8 -5.3,-4.6 -5.2,-4.5 -6.1,-3.5 z"
       id="path64"
       inkscape:connector-curvature="0"
       style="fill:#000000;stroke:none;stroke-width:0.1" />
    <path
       d="m 2020.5,2513.6 c -3.3,0.7 -9.2,1.3 -13.1,1.4 h -7.2 l -5.6,14 c -3.1,7.7 -5.6,14.6 -5.6,15.4 0,1.5 10.7,11.8 16.1,15.5 2,1.3 4.8,4.3 6.3,6.7 3,4.8 12.1,11.3 13.7,9.7 0.6,-0.6 0.6,-2 -0.1,-3.8 -0.6,-1.6 -1.9,-6 -2.9,-9.8 l -1.9,-6.9 2.8,-6.8 c 1.6,-3.8 4.7,-10.1 7.1,-14 l 4.2,-7.1 -1.6,-3.5 c -1,-1.9 -1.7,-5.5 -1.7,-7.9 0,-5.2 -0.3,-5.3 -10.5,-2.9 z"
       id="path66"
       inkscape:connector-curvature="0"
       style="fill:#000000;stroke:none;stroke-width:0.1" />
    <path
       d="m 1115.5,2518.2 c -4.7,12.7 -6.4,19.8 -4.7,19.8 6.9,0 36.2,-8.1 36.2,-10 0,-1.4 -3,-2.6 -9.7,-3.9 -3.4,-0.7 -9.5,-2.5 -13.4,-4.1 -8.3,-3.5 -7.8,-3.4 -8.4,-1.8 z"
       id="path68"
       inkscape:connector-curvature="0"
       style="fill:#000000;stroke:none;stroke-width:0.1" />
    <path
       d="m 1504.6,2540.9 c -0.9,1.5 3.3,5.9 9.6,10.2 4.6,3.2 6.3,3.8 7.1,2.9 0.9,-0.9 0.5,-1.7 -1.8,-3.4 -1.6,-1.1 -5,-4 -7.6,-6.4 -4.6,-4.2 -6.3,-5 -7.3,-3.3 z"
       id="path70"
       inkscape:connector-curvature="0"
       style="fill:#000000;stroke:none;stroke-width:0.1" />
    <path
       d="m 1158.6,2574.7 c -5.6,11.5 -11.5,24.4 -12.9,28.8 -8.5,26.2 -10.7,37.8 -10.7,57 0,12.7 1.9,29.8 3.4,31.3 1.2,1.1 7.5,-6.8 13.9,-17.2 5.3,-8.7 5.7,-9.9 7.1,-19.7 0.9,-5.7 2.7,-14.2 4.1,-18.9 1.4,-4.7 3.2,-13.2 4.1,-19 0.8,-5.8 2.8,-15.7 4.4,-22 2.8,-11 2.8,-11.8 1.5,-18 -0.8,-3.6 -1.4,-10.2 -1.5,-14.8 0,-6.6 -0.3,-8.2 -1.5,-8.2 -0.9,0 -5.3,7.6 -11.9,20.7 z"
       id="path72"
       inkscape:connector-curvature="0"
       style="fill:#000000;stroke:none;stroke-width:0.1" />
    <path
       d="m 1969,2562.1 c -5.2,1.5 -12.9,3.3 -17,3.9 -13.9,2 -12.8,1.4 -16.7,9.8 -1.9,4.2 -5.2,12.7 -7.3,18.9 l -3.9,11.2 1.6,4.8 c 3.4,10.2 8,14.8 22.2,21.9 l 6.4,3.3 -3.4,0.6 c -10,1.7 -23.9,3.5 -27.8,3.5 -2.5,0 -11.8,-1.1 -20.7,-2.5 l -16.3,-2.6 -11.9,8 c -6.6,4.3 -13.8,8.9 -15.9,10.1 -2.1,1.2 -5.4,4.2 -7.3,6.8 -1.9,2.6 -7,8.3 -11.2,12.8 -4.3,4.5 -7.8,8.6 -7.8,9.3 0,1.4 16.6,1.5 22.6,0.1 2.3,-0.5 12.4,-2.1 22.5,-3.5 10.1,-1.4 19.3,-2.7 20.4,-2.9 1.4,-0.3 2.6,0.5 4.1,2.9 l 2.2,3.3 -3.9,3.8 c -2.1,2.1 -3.9,4.2 -3.9,4.6 0,0.8 17.6,12.8 18.7,12.8 0.3,0 3.5,-2.2 7.2,-4.8 3.6,-2.7 12.7,-8.6 20.3,-13.1 9,-5.4 20.6,-13.8 34.4,-24.9 11.4,-9.2 21,-17.3 21.2,-18 0.3,-0.9 -1.5,-1.2 -6.7,-1.2 -3.8,0 -10.3,-0.7 -14.3,-1.5 -8.6,-1.8 -11,-4 -13.5,-12.5 -1.8,-6.2 -1.9,-5.9 4.7,-24.2 l 4.2,-11.7 4.2,-0.3 4.1,-0.3 v -15.4 c 0,-9.5 -0.4,-15.5 -1,-15.7 -0.5,-0.1 -5.3,1.1 -10.5,2.7 z"
       id="path74"
       inkscape:connector-curvature="0"
       style="fill:#000000;stroke:none;stroke-width:0.1" />
    <path
       d="m 2033.5,2583.2 c -2.7,0.5 -10.2,1.2 -16.5,1.6 l -11.5,0.7 v 5.7 c 0.1,9.6 5,13.5 17,13.7 4.8,0.1 5.3,-0.1 10.1,-5.2 6.3,-6.4 12.4,-14.5 12.4,-16.3 0,-1.6 -3.8,-1.7 -11.5,-0.2 z"
       id="path76"
       inkscape:connector-curvature="0"
       style="fill:#000000;stroke:none;stroke-width:0.1" />
    <path
       d="m 987.2,2616.2 c -1.8,1.8 -1.6,20.2 0.1,21.7 0.8,0.6 1.7,0.8 2,0.4 1,-0.9 0.8,-22.1 -0.1,-22.7 -0.5,-0.3 -1.4,0 -2,0.6 z"
       id="path78"
       inkscape:connector-curvature="0"
       style="fill:#000000;stroke:none;stroke-width:0.1" />
    <path
       d="m 1249.8,2630.7 c -0.8,1 -3.8,5.2 -6.6,9.4 l -5.1,7.6 4.4,14.9 c 2.4,8.2 5.3,17.5 6.5,20.8 2.5,6.5 6.9,12 8.6,10.9 1.2,-0.8 6.4,-22.2 6.4,-26 0,-1.1 -0.7,-4 -1.6,-6.4 -0.8,-2.4 -3.3,-10.5 -5.5,-17.9 -2.2,-7.4 -4.3,-13.8 -4.7,-14.2 -0.5,-0.5 -1.5,0 -2.4,0.9 z"
       id="path80"
       inkscape:connector-curvature="0"
       style="fill:#000000;stroke:none;stroke-width:0.1" />
    <path
       d="m 1661.7,2643.6 c -1.3,1.3 -0.7,7.3 1,10.9 2.1,4.3 4.9,4.9 3.8,0.7 -0.3,-1.5 -0.9,-4.7 -1.3,-7.1 -0.7,-4.2 -2,-5.9 -3.5,-4.5 z"
       id="path82"
       inkscape:connector-curvature="0"
       style="fill:#000000;stroke:none;stroke-width:0.1" />
    <path
       d="m 1778,2672.5 c -3.6,1.9 -10.8,4.8 -16,6.6 -5.2,1.8 -17.4,7.1 -27,11.9 -9.6,4.8 -21.1,9.8 -25.5,11 -15.1,4.2 -27,8.3 -36.5,12.5 -5.3,2.3 -13.9,5.6 -19.2,7.4 -9.3,3.1 -9.7,3.4 -11.2,7.2 -0.9,2.2 -1.6,4.9 -1.6,6.1 0,2.9 7,14.7 13.7,23 2.9,3.7 5.8,7.9 6.3,9.3 0.6,1.7 1.7,2.5 3.3,2.5 3.4,0 15.2,-5 23.5,-9.9 5.4,-3.2 9.6,-4.7 19.4,-7 13.3,-3 15.7,-4.1 34.3,-16.4 5,-3.3 9.1,-6.1 9.3,-6.3 0.2,-0.1 1,-2.8 1.8,-6 2.5,-9.5 12.6,-28.3 17.9,-33.4 5.4,-5.2 17.5,-19.8 17.5,-21.1 0,-1.7 -3.5,-0.8 -10,2.6 z"
       id="path84"
       inkscape:connector-curvature="0"
       style="fill:#000000;stroke:none;stroke-width:0.1" />
    <path
       d="m 1202,2684 c 0,2 3.8,8.5 6.2,10.6 2.4,2.3 14,8.4 15.8,8.4 2.9,0 0.2,-3.5 -6.7,-8.8 -4.3,-3.3 -8.9,-7.1 -10.2,-8.6 -2.5,-2.6 -5.1,-3.5 -5.1,-1.6 z"
       id="path86"
       inkscape:connector-curvature="0"
       style="fill:#000000;stroke:none;stroke-width:0.1" />
    <path
       d="m 1812,2759.5 c -3,0.8 -9.2,1.4 -13.7,1.5 h -8.3 v 4.3 c 0,3.1 0.6,4.9 2,6.2 1.9,1.8 2.3,1.7 11.7,-2.7 5.4,-2.5 11.5,-5.2 13.6,-5.9 2.4,-0.8 3.7,-1.9 3.7,-3.1 0,-2.1 -1.4,-2.2 -9,-0.3 z"
       id="path88"
       inkscape:connector-curvature="0"
       style="fill:#000000;stroke:none;stroke-width:0.1" />
    <path
       d="m 1637.5,2784.6 c -1.9,4.6 -6,16.7 -6.9,20.7 -1.1,4.5 1.7,4.4 8,-0.3 7.6,-5.7 17.4,-15.3 17.4,-17.1 0,-0.8 -2.6,-2.4 -6.2,-3.7 -10.5,-3.9 -10.5,-3.9 -12.3,0.4 z"
       id="path90"
       inkscape:connector-curvature="0"
       style="fill:#000000;stroke:none;stroke-width:0.1" />
    <path
       d="m 2064.5,2846 c -1,1.7 5.8,10.7 10.4,13.6 l 4.4,2.7 13,-2.6 c 7.2,-1.5 13.5,-3.1 14,-3.6 1.9,-1.9 -0.5,-2.9 -10,-4.1 -5.4,-0.7 -14.3,-2.6 -19.8,-4.2 -11.3,-3.2 -11.2,-3.1 -12,-1.8 z"
       id="path92"
       inkscape:connector-curvature="0"
       style="fill:#000000;stroke:none;stroke-width:0.1" />
    <path
       d="m 1245.4,2928.9 c -4.4,1.6 -12,3.4 -16.8,4.1 l -8.9,1.4 -17.1,21.5 c -21.6,27.1 -28.6,38.1 -24.3,38.1 2.6,0 14.3,-5.2 22,-9.9 6.9,-4.1 8.2,-5.4 11.9,-11.6 7.2,-12.2 15,-20.6 29.8,-32.5 12.8,-10.2 15.2,-12.9 12.4,-13.6 -0.5,-0.1 -4.5,1 -9,2.5 z"
       id="path94"
       inkscape:connector-curvature="0"
       style="fill:#000000;stroke:none;stroke-width:0.1" />
    <path
       d="m 1294.7,2963.7 c -0.3,0.5 -1.9,5.5 -3.6,11.3 -1.7,5.8 -4.2,13.8 -5.6,17.9 -2.2,6.4 -2.5,9.2 -2.5,20.1 0,13.4 1.9,31.2 4.5,42 1.9,7.8 6.3,16.3 8.8,16.8 1.5,0.3 1.7,-0.6 1.7,-9 0,-5.1 0.7,-13.1 1.5,-17.8 0.8,-4.7 1.5,-14.4 1.6,-21.5 0,-7.2 0.6,-17.1 1.3,-22 1.1,-8.5 1,-9.8 -1.8,-23.8 -1.9,-9.9 -3.3,-14.7 -4.2,-14.7 -0.7,0 -1.5,0.3 -1.7,0.7 z"
       id="path96"
       inkscape:connector-curvature="0"
       style="fill:#000000;stroke:none;stroke-width:0.1" />
    <path
       d="m 2460.9,3094.2 c -2.3,2.9 -10.2,11.4 -17.4,18.8 -14.6,15 -21,23.2 -20.1,25.6 0.5,1.3 1.8,0.7 6.9,-3 3.4,-2.5 9.4,-6.4 13.2,-8.7 8.5,-5 14.4,-10.6 23.7,-22.2 l 7.1,-8.8 -3.4,-3.5 c -1.8,-1.9 -3.8,-3.4 -4.5,-3.4 -0.7,0 -3.1,2.4 -5.5,5.2 z"
       id="path98"
       inkscape:connector-curvature="0"
       style="fill:#000000;stroke:none;stroke-width:0.1" />
    <path
       d="m 1911,3368.1 c -7.4,1.1 -17.5,2.3 -22.5,2.7 -7,0.5 -9,1 -9,2.2 0,1.3 3.1,1.5 21,1.8 18,0.2 23.7,-0.1 40,-2.3 27.4,-3.7 26.5,-3.5 26.5,-5.1 0,-2.3 -38.6,-1.7 -56,0.7 z"
       id="path100"
       inkscape:connector-curvature="0"
       style="fill:#000000;stroke:none;stroke-width:0.1" />
  </g>
</svg>
